solid Main.HumanModel.BodyModel.Right.ShoulderArm.Seg.Acromion.DrwSurf
facet normal   -6.044932880757005e-01   -5.517030316722619e-01   -5.746404349809221e-01
  outer loop
    vertex    1.990943975734636e-02   -4.153584922626823e-03   -3.910753533928729e-02
    vertex    2.152204617965463e-02   -7.201615014663143e-03   -3.787755283059894e-02
    vertex    1.802764492341075e-02   -6.651352403065957e-03   -3.472991398706940e-02
  endloop
endfacet
facet normal    1.296895364216078e-01    2.446482988073086e-01    9.608994921600481e-01
  outer loop
    vertex    1.165101388499038e-02   -1.531059336906502e-02    4.242850960463546e-03
    vertex    1.388773060913365e-02   -1.418251310577634e-02    3.653755350557663e-03
    vertex    6.300490606209822e-03   -1.298123182189167e-02    4.371930583074370e-03
  endloop
endfacet
facet normal    9.357693695725360e-03   -9.832079648286979e-01   -1.822485431110686e-01
  outer loop
    vertex    1.803272633908074e-02   -1.554510411080664e-02   -9.348192276640218e-03
    vertex    1.422862695907317e-02   -1.483973904281619e-02   -1.334887254162321e-02
    vertex    2.104038961754255e-02   -1.336907271322629e-02   -2.093317712248271e-02
  endloop
endfacet
facet normal   -4.904440980117626e-01   -7.678174130732393e-01   -4.122147582352517e-01
  outer loop
    vertex    1.002970574660199e-02   -1.016431640394212e-02   -1.867067092348869e-02
    vertex    1.802764492341075e-02   -6.651352403065957e-03   -3.472991398706940e-02
    vertex    1.365780238119923e-02   -1.177241334466252e-02   -1.999195731020459e-02
  endloop
endfacet
facet normal    1.159689863465240e-01    9.564155653891347e-01    2.679933963498755e-01
  outer loop
    vertex   -4.014153025030112e-03   -5.775543668084564e-03   -4.287204222891691e-03
    vertex    4.134499274512706e-03   -5.506698323793275e-03   -8.772832733160768e-03
    vertex    6.054529262308124e-03   -4.312924430931705e-03   -1.386403230266906e-02
  endloop
endfacet
facet normal    4.773302552824449e-01   -8.618718745251353e-01    1.712679167109990e-01
  outer loop
    vertex    2.741294802625626e-02   -1.271548359071877e-02   -7.051242408972184e-03
    vertex    2.604800813766550e-02   -1.381652383527969e-02   -8.787869558720275e-03
    vertex    3.189370704329721e-02   -1.251116353186955e-02   -1.851108947800451e-02
  endloop
endfacet
facet normal    6.010764057493314e-01    7.822365457678458e-01   -1.637471859808713e-01
  outer loop
    vertex    3.398894965801723e-02   -6.116609350333533e-03   -3.540377969065427e-02
    vertex    3.332083512949906e-02   -6.771703490071336e-03   -4.098571657083149e-02
    vertex    2.928927325768545e-02   -3.252522212725448e-03   -3.897312939333552e-02
  endloop
endfacet
facet normal    1.984374568586270e-01    7.795076855364935e-01    5.941299049071842e-01
  outer loop
    vertex    2.442489734624270e-02   -1.228640746244847e-02   -2.353344211158518e-03
    vertex    9.899645663000084e-03   -1.145010775806840e-02    1.400804399870299e-03
    vertex    1.388773060913365e-02   -1.418251310577634e-02    3.653755350557663e-03
  endloop
endfacet
facet normal   -7.196035938679104e-01   -2.773129210195218e-01   -6.366067950689875e-01
  outer loop
    vertex    7.681562740024365e-03   -7.281940652716839e-03   -1.882854301403141e-02
    vertex    4.801829099168395e-03   -6.027723461121325e-03   -1.611971857529581e-02
    vertex    8.922142060753237e-03   -5.068370903037198e-03   -2.119511660782341e-02
  endloop
endfacet
facet normal   -3.412488353343639e-01   -3.346160074161125e-01   -8.783970400472899e-01
  outer loop
    vertex    4.829540307968063e-03   -1.139138880302373e-02   -1.396386629502431e-02
    vertex    1.184839477349178e-05   -1.196558081605342e-02   -1.187350679976828e-02
    vertex    2.754307849996048e-03   -7.970491157845799e-03   -1.446081292915015e-02
  endloop
endfacet
facet normal   -2.683039422222419e-01   -5.716503497490991e-01   -7.753894971043500e-01
  outer loop
    vertex    4.829540307968063e-03   -1.139138880302373e-02   -1.396386629502431e-02
    vertex    2.226079905013740e-03   -1.449309241022535e-02   -1.077629585379821e-02
    vertex    1.184839477349178e-05   -1.196558081605342e-02   -1.187350679976828e-02
  endloop
endfacet
facet normal    7.321417039553804e-01   -5.917677236931482e-01    3.373121499803138e-01
  outer loop
    vertex    2.741294802625626e-02   -1.271548359071877e-02   -7.051242408972184e-03
    vertex    2.354244370665047e-02   -1.372267073728176e-02   -4.172187522528521e-04
    vertex    2.238346275837310e-02   -1.506016073711986e-02   -2.480731295398496e-04
  endloop
endfacet
facet normal    8.666627124689749e-01    2.932584612499385e-01    4.036027969690466e-01
  outer loop
    vertex    3.534661062691546e-02   -8.720653771500785e-03   -2.414923014858116e-02
    vertex    2.947990131701678e-02   -1.152193135262255e-02   -9.516138898694591e-03
    vertex    3.491731597073525e-02   -9.928197268167896e-03   -2.234999579155502e-02
  endloop
endfacet
facet normal    1.679304841525965e-01    9.597261187949512e-01   -2.252223998519111e-01
  outer loop
    vertex    2.517528415955286e-02   -2.033989575706398e-03   -3.684814796334433e-02
    vertex    2.928927325768545e-02   -3.252522212725448e-03   -3.897312939333552e-02
    vertex    2.248340670743119e-02   -2.258705598258104e-03   -3.981283584700011e-02
  endloop
endfacet
facet normal   -1.008485826454538e-01   -9.581161705170618e-01   -2.680353841792604e-01
  outer loop
    vertex    3.602456477541625e-02   -1.005325060269537e-02   -3.388605243474596e-02
    vertex    3.107939435482062e-02   -1.028251427322695e-02   -3.120590384128543e-02
    vertex    3.504688374013044e-02   -8.869366423923145e-03   -3.775009759499388e-02
  endloop
endfacet
facet normal    5.620417172810470e-01    8.232879147096130e-01   -7.941106679089914e-02
  outer loop
    vertex    3.398894965801723e-02   -6.116609350333533e-03   -3.540377969065427e-02
    vertex    2.928927325768545e-02   -3.252522212725448e-03   -3.897312939333552e-02
    vertex    3.078402915532216e-02   -3.724847562931725e-03   -3.329060380560959e-02
  endloop
endfacet
facet normal    1.723254376639071e-01    9.575012774810608e-01    2.312903957281394e-01
  outer loop
    vertex    2.260752653281297e-02   -2.627546578382925e-03   -3.115401009107464e-02
    vertex    1.754837246156875e-02   -3.193207444083582e-03   -2.504289623952029e-02
    vertex    2.799385546564981e-02   -4.348378483178654e-03   -2.804321401087377e-02
  endloop
endfacet
facet normal    1.477472568324639e-01   -9.810404715155759e-01   -1.254206575767258e-01
  outer loop
    vertex    2.168434326407835e-02   -1.517344308602013e-02   -7.953670193514711e-03
    vertex    1.803272633908074e-02   -1.554510411080664e-02   -9.348192276640218e-03
    vertex    2.693447859469391e-02   -1.332629613748113e-02   -1.621732340886777e-02
  endloop
endfacet
facet normal    1.288918320135809e-01    9.648166301299698e-01    2.291631861028995e-01
  outer loop
    vertex    1.754837246156875e-02   -3.193207444083582e-03   -2.504289623952029e-02
    vertex    6.054529262308124e-03   -4.312924430931705e-03   -1.386403230266906e-02
    vertex    1.223157978660939e-02   -4.776574511645348e-03   -1.538624036765634e-02
  endloop
endfacet
facet normal   -4.650914830289001e-01    2.812414374977811e-01   -8.394004802525195e-01
  outer loop
    vertex   -4.224813940876163e-03   -7.860208598858120e-03   -9.946215767435471e-03
    vertex   -9.606453809974248e-03   -1.082669255464750e-02   -7.958300946009602e-03
    vertex   -8.413125823843572e-03   -6.820092215463583e-03   -7.277082183911976e-03
  endloop
endfacet
facet normal    9.807869440983361e-01   -9.388045426742070e-02    1.710071068487802e-01
  outer loop
    vertex    3.534661062691546e-02   -8.720653771500785e-03   -2.414923014858116e-02
    vertex    3.491731597073525e-02   -9.928197268167896e-03   -2.234999579155502e-02
    vertex    3.597121824107095e-02   -1.033584832132514e-02   -2.861829699205275e-02
  endloop
endfacet
facet normal   -2.464662473371791e-01   -8.877723177742529e-01   -3.887347433884179e-01
  outer loop
    vertex    8.759139409268460e-03   -1.327462822541324e-02   -1.345541816787869e-02
    vertex    1.365780238119923e-02   -1.177241334466252e-02   -1.999195731020459e-02
    vertex    1.422862695907317e-02   -1.483973904281619e-02   -1.334887254162321e-02
  endloop
endfacet
facet normal   -5.398380681003636e-01   -1.398421089582003e-01   -8.300717106321537e-01
  outer loop
    vertex    2.754307849996048e-03   -7.970491157845799e-03   -1.446081292915015e-02
    vertex    4.801829099168395e-03   -6.027723461121325e-03   -1.611971857529581e-02
    vertex    7.376249628078192e-03   -9.154594197415742e-03   -1.726721221277455e-02
  endloop
endfacet
facet normal    6.145172169395353e-01   -7.555986432086454e-01    2.268022937850101e-01
  outer loop
    vertex    3.299677742486335e-02   -1.158317512308263e-02   -1.840821996449591e-02
    vertex    2.741294802625626e-02   -1.271548359071877e-02   -7.051242408972184e-03
    vertex    3.189370704329721e-02   -1.251116353186955e-02   -1.851108947800451e-02
  endloop
endfacet
facet normal   -5.443245829477474e-01   -5.452410855837743e-01   -6.375130641721691e-01
  outer loop
    vertex    2.442896081274077e-02   -5.153480744996815e-03   -4.211124183184049e-02
    vertex    2.152204617965463e-02   -7.201615014663143e-03   -3.787755283059894e-02
    vertex    1.990943975734636e-02   -4.153584922626823e-03   -3.910753533928729e-02
  endloop
endfacet
facet normal    4.829605319052285e-01    8.136929308049460e-01    3.235010648821361e-01
  outer loop
    vertex    3.534661062691546e-02   -8.720653771500785e-03   -2.414923014858116e-02
    vertex    3.130014771190435e-02   -6.701410989778687e-03   -2.318713654676949e-02
    vertex    2.953309457587302e-02   -1.021762716897673e-02   -1.170483378516569e-02
  endloop
endfacet
facet normal    2.379874499078922e-01    7.250177298718090e-01    6.463058602998020e-01
  outer loop
    vertex    2.442489734624270e-02   -1.228640746244847e-02   -2.353344211158518e-03
    vertex    1.388773060913365e-02   -1.418251310577634e-02    3.653755350557663e-03
    vertex    2.354244370665047e-02   -1.372267073728176e-02   -4.172187522528521e-04
  endloop
endfacet
facet normal    2.013293764862810e-02   -9.797206456964174e-01   -1.993542605961345e-01
  outer loop
    vertex    2.621923851744085e-02   -1.090650596530227e-02   -2.863014585398608e-02
    vertex    3.504688374013044e-02   -8.869366423923145e-03   -3.775009759499388e-02
    vertex    3.107939435482062e-02   -1.028251427322695e-02   -3.120590384128543e-02
  endloop
endfacet
facet normal    4.766516677839180e-01   -5.516279675322296e-01    6.844777374283775e-01
  outer loop
    vertex    1.694124824939389e-02   -1.578415318730270e-02    2.958263641302726e-03
    vertex    1.812851185747906e-02   -1.646892298856635e-02    1.579622231960746e-03
    vertex    2.238346275837310e-02   -1.506016073711986e-02   -2.480731295398496e-04
  endloop
endfacet
facet normal   -8.645619413592179e-01   -6.172842005384700e-02   -4.987206148845623e-01
  outer loop
    vertex    8.922142060753237e-03   -5.068370903037198e-03   -2.119511660782341e-02
    vertex    1.775920956092533e-02   -2.889351357076046e-03   -3.678440535120021e-02
    vertex    1.600372206016648e-02   -5.206359842032511e-03   -3.345437866862557e-02
  endloop
endfacet
facet normal    8.393664170008153e-02   -7.718677911522646e-01    6.302180203404502e-01
  outer loop
    vertex    1.165101388499038e-02   -1.531059336906502e-02    4.242850960463546e-03
    vertex    1.330911563792433e-02   -1.685787308505027e-02    2.126962765628728e-03
    vertex    1.694124824939389e-02   -1.578415318730270e-02    2.958263641302726e-03
  endloop
endfacet
facet normal   -2.135037012337978e-01    9.759880517155827e-01   -4.316818814694750e-02
  outer loop
    vertex    6.054529262308124e-03   -4.312924430931705e-03   -1.386403230266906e-02
    vertex    1.951777589976881e-02   -2.161536060682800e-03   -3.181066562258818e-02
    vertex    9.618043602796644e-03   -3.834226506221580e-03   -2.066580135529605e-02
  endloop
endfacet
facet normal   -2.620865573605295e-02   -4.879692828068301e-02    9.984648046650813e-01
  outer loop
    vertex   -1.320473586289203e-02   -7.909564968373054e-03    4.107801090842308e-03
    vertex   -6.797991188984736e-03   -1.079607346338509e-02    4.134902113740776e-03
    vertex    6.300490606209822e-03   -1.298123182189167e-02    4.371930583074370e-03
  endloop
endfacet
facet normal   -1.175077623813467e-01    9.915142753234275e-01   -5.560006843509502e-02
  outer loop
    vertex   -8.743513639573753e-03   -5.632483212178662e-03   -6.120812691507225e-03
    vertex    6.054529262308124e-03   -4.312924430931705e-03   -1.386403230266906e-02
    vertex    4.108991817377787e-03   -4.579685475370658e-03   -1.450938459967942e-02
  endloop
endfacet
facet normal   -5.591078672027645e-01    4.823821632229032e-01   -6.743187980742997e-01
  outer loop
    vertex   -4.224813940876163e-03   -7.860208598858120e-03   -9.946215767435471e-03
    vertex    4.108991817377787e-03   -4.579685475370658e-03   -1.450938459967942e-02
    vertex    4.801829099168395e-03   -6.027723461121325e-03   -1.611971857529581e-02
  endloop
endfacet
facet normal    7.082559466998061e-01   -6.046094559538490e-01   -3.644460450266299e-01
  outer loop
    vertex    3.602456477541625e-02   -1.005325060269537e-02   -3.388605243474596e-02
    vertex    3.504688374013044e-02   -8.869366423923145e-03   -3.775009759499388e-02
    vertex    3.674737532899864e-02   -8.434067198417234e-03   -3.516755550114328e-02
  endloop
endfacet
facet normal    5.319571537628648e-01   -8.390784272464370e-01    1.138814273275388e-01
  outer loop
    vertex    2.741294802625626e-02   -1.271548359071877e-02   -7.051242408972184e-03
    vertex    2.073529309052657e-02   -1.608790962279808e-02   -7.069560808665451e-04
    vertex    2.604800813766550e-02   -1.381652383527969e-02   -8.787869558720275e-03
  endloop
endfacet
facet normal    6.360326149617678e-01   -7.661956415037625e-01    9.168833974684862e-02
  outer loop
    vertex    3.299677742486335e-02   -1.158317512308263e-02   -1.840821996449591e-02
    vertex    3.189370704329721e-02   -1.251116353186955e-02   -1.851108947800451e-02
    vertex    3.597121824107095e-02   -1.033584832132514e-02   -2.861829699205275e-02
  endloop
endfacet
facet normal   -4.964731095923753e-02   -8.797566570328196e-01   -4.728248818758958e-01
  outer loop
    vertex    3.388302296677195e-02   -7.506346079200290e-03   -4.016398000254554e-02
    vertex    3.504688374013044e-02   -8.869366423923145e-03   -3.775009759499388e-02
    vertex    2.562637725593839e-02   -6.908298704880313e-03   -4.040977058199201e-02
  endloop
endfacet
facet normal    5.106636055884597e-01   -8.558058713037050e-01    8.257719158157793e-02
  outer loop
    vertex    2.741294802625626e-02   -1.271548359071877e-02   -7.051242408972184e-03
    vertex    2.238346275837310e-02   -1.506016073711986e-02   -2.480731295398496e-04
    vertex    2.073529309052657e-02   -1.608790962279808e-02   -7.069560808665451e-04
  endloop
endfacet
facet normal    1.648045370365050e-01    8.534170318796925e-01    4.944884571654221e-01
  outer loop
    vertex    2.366674679620396e-02   -1.103687249494037e-02   -4.257185967534666e-03
    vertex    1.291921694752788e-02   -9.523136223004103e-03   -3.287712650602966e-03
    vertex    2.442489734624270e-02   -1.228640746244847e-02   -2.353344211158518e-03
  endloop
endfacet
facet normal   -6.852997321564422e-01   -4.654108527564182e-01   -5.601401746374314e-01
  outer loop
    vertex    1.990943975734636e-02   -4.153584922626823e-03   -3.910753533928729e-02
    vertex    1.802764492341075e-02   -6.651352403065957e-03   -3.472991398706940e-02
    vertex    1.600372206016648e-02   -5.206359842032511e-03   -3.345437866862557e-02
  endloop
endfacet
facet normal    1.721698637377517e-01    9.337225702991486e-01    3.138784792471053e-01
  outer loop
    vertex    2.040737684205752e-02   -7.677964143918579e-03   -1.123983592787680e-02
    vertex    1.223157978660939e-02   -4.776574511645348e-03   -1.538624036765634e-02
    vertex    4.134499274512706e-03   -5.506698323793275e-03   -8.772832733160768e-03
  endloop
endfacet
facet normal    2.386705600588353e-01    3.358836315901153e-02    9.705195441728622e-01
  outer loop
    vertex    1.694124824939389e-02   -1.578415318730270e-02    2.958263641302726e-03
    vertex    1.388773060913365e-02   -1.418251310577634e-02    3.653755350557663e-03
    vertex    1.165101388499038e-02   -1.531059336906502e-02    4.242850960463546e-03
  endloop
endfacet
facet normal   -4.927008436007137e-01    5.327975317760514e-01   -6.880208346034968e-01
  outer loop
    vertex    4.108991817377787e-03   -4.579685475370658e-03   -1.450938459967942e-02
    vertex   -8.413125823843572e-03   -6.820092215463583e-03   -7.277082183911976e-03
    vertex   -8.743513639573753e-03   -5.632483212178662e-03   -6.120812691507225e-03
  endloop
endfacet
facet normal    1.309533084510144e-01   -9.585668750355667e-01   -2.529837486683317e-01
  outer loop
    vertex    1.937377399430447e-03   -1.864862193432298e-02   -3.856405543206968e-03
    vertex   -3.183665399107919e-03   -1.955658318313464e-02   -3.066931591657663e-03
    vertex   -3.968750159509247e-03   -1.869855944910506e-02   -6.724409912279690e-03
  endloop
endfacet
facet normal    1.841950211987565e-01    9.597572753973835e-01    2.119862412690517e-01
  outer loop
    vertex    2.799385546564981e-02   -4.348378483178654e-03   -2.804321401087377e-02
    vertex    3.078402915532216e-02   -3.724847562931725e-03   -3.329060380560959e-02
    vertex    2.260752653281297e-02   -2.627546578382925e-03   -3.115401009107464e-02
  endloop
endfacet
facet normal   -5.250577208700138e-01    4.426731664954404e-01   -7.268802221959865e-01
  outer loop
    vertex    1.775920956092533e-02   -2.889351357076046e-03   -3.678440535120021e-02
    vertex    2.248340670743119e-02   -2.258705598258104e-03   -3.981283584700011e-02
    vertex    1.990943975734636e-02   -4.153584922626823e-03   -3.910753533928729e-02
  endloop
endfacet
facet normal   -1.021483292098750e-02   -9.906547668597291e-01    1.360102572841184e-01
  outer loop
    vertex    4.148267411921499e-03   -1.824939935018434e-02   -7.825518762299360e-04
    vertex    1.937377399430447e-03   -1.864862193432298e-02   -3.856405543206968e-03
    vertex    8.264641859852616e-03   -1.860839997631462e-02   -3.088242716154305e-03
  endloop
endfacet
facet normal    2.327655561906919e-01   -9.682005937834198e-01   -9.169408949693084e-02
  outer loop
    vertex    1.465871298326757e-02   -1.736552023970232e-02   -2.642033810153493e-03
    vertex    2.168434326407835e-02   -1.517344308602013e-02   -7.953670193514711e-03
    vertex    2.073529309052657e-02   -1.608790962279808e-02   -7.069560808665451e-04
  endloop
endfacet
facet normal   -4.921328711687847e-01   -7.666794594165927e-01   -4.123200742431171e-01
  outer loop
    vertex    1.802764492341075e-02   -6.651352403065957e-03   -3.472991398706940e-02
    vertex    2.152204617965463e-02   -7.201615014663143e-03   -3.787755283059894e-02
    vertex    1.365780238119923e-02   -1.177241334466252e-02   -1.999195731020459e-02
  endloop
endfacet
facet normal    1.991749267388391e-01   -9.664574492794009e-01   -1.621399003667270e-01
  outer loop
    vertex    8.264641859852616e-03   -1.860839997631462e-02   -3.088242716154305e-03
    vertex    1.803272633908074e-02   -1.554510411080664e-02   -9.348192276640218e-03
    vertex    1.465871298326757e-02   -1.736552023970232e-02   -2.642033810153493e-03
  endloop
endfacet
facet normal    8.707976751668363e-02   -9.417148633904528e-01   -3.249465035336448e-01
  outer loop
    vertex    8.264641859852616e-03   -1.860839997631462e-02   -3.088242716154305e-03
    vertex    1.284030589424875e-02   -1.606151221662533e-02   -9.243084441139580e-03
    vertex    1.803272633908074e-02   -1.554510411080664e-02   -9.348192276640218e-03
  endloop
endfacet
facet normal    1.276755212138226e-01   -8.400821345331931e-01    5.272200380495159e-01
  outer loop
    vertex    1.330911563792433e-02   -1.685787308505027e-02    2.126962765628728e-03
    vertex    1.812851185747906e-02   -1.646892298856635e-02    1.579622231960746e-03
    vertex    1.694124824939389e-02   -1.578415318730270e-02    2.958263641302726e-03
  endloop
endfacet
facet normal    1.980937123924781e-01    9.256711475432517e-01    3.223225212679461e-01
  outer loop
    vertex   -1.304492284101387e-02   -5.931043333542627e-03    1.709523107155829e-03
    vertex    8.634101492862857e-04   -7.676208135262824e-03   -1.826390567431847e-03
    vertex   -4.014153025030112e-03   -5.775543668084564e-03   -4.287204222891691e-03
  endloop
endfacet
facet normal   -7.745605365780898e-01   -2.488648426682132e-01   -5.814828159624212e-01
  outer loop
    vertex    1.990943975734636e-02   -4.153584922626823e-03   -3.910753533928729e-02
    vertex    1.600372206016648e-02   -5.206359842032511e-03   -3.345437866862557e-02
    vertex    1.775920956092533e-02   -2.889351357076046e-03   -3.678440535120021e-02
  endloop
endfacet
facet normal    7.037957750969782e-01    7.021852269069911e-01    1.077377095970623e-01
  outer loop
    vertex    3.674737532899864e-02   -8.434067198417234e-03   -3.516755550114328e-02
    vertex    3.447827166062035e-02   -6.998992291149440e-03   -2.969781628098261e-02
    vertex    3.534661062691546e-02   -8.720653771500785e-03   -2.414923014858116e-02
  endloop
endfacet
facet normal    1.152208838671255e-01    9.812907812319226e-01    1.542483406397664e-01
  outer loop
    vertex    2.260752653281297e-02   -2.627546578382925e-03   -3.115401009107464e-02
    vertex    2.517528415955286e-02   -2.033989575706398e-03   -3.684814796334433e-02
    vertex    1.951777589976881e-02   -2.161536060682800e-03   -3.181066562258818e-02
  endloop
endfacet
facet normal    6.246510611607405e-01    7.780458553480676e-01    6.675102071470096e-02
  outer loop
    vertex    3.078402915532216e-02   -3.724847562931725e-03   -3.329060380560959e-02
    vertex    3.447827166062035e-02   -6.998992291149440e-03   -2.969781628098261e-02
    vertex    3.398894965801723e-02   -6.116609350333533e-03   -3.540377969065427e-02
  endloop
endfacet
facet normal    9.913916591153985e-01    3.232414283216389e-02    1.268768222591635e-01
  outer loop
    vertex    3.534661062691546e-02   -8.720653771500785e-03   -2.414923014858116e-02
    vertex    3.597121824107095e-02   -1.033584832132514e-02   -2.861829699205275e-02
    vertex    3.674737532899864e-02   -8.434067198417234e-03   -3.516755550114328e-02
  endloop
endfacet
facet normal   -5.584750185121932e-02   -9.615633986473319e-01   -2.688436105224939e-01
  outer loop
    vertex    2.438754810804929e-02   -9.320139573489188e-03   -3.392354495287694e-02
    vertex    3.504688374013044e-02   -8.869366423923145e-03   -3.775009759499388e-02
    vertex    2.621923851744085e-02   -1.090650596530227e-02   -2.863014585398608e-02
  endloop
endfacet
facet normal   -8.573827987675288e-01   -1.456901922646838e-01   -4.936285083495875e-01
  outer loop
    vertex    8.922142060753237e-03   -5.068370903037198e-03   -2.119511660782341e-02
    vertex    1.600372206016648e-02   -5.206359842032511e-03   -3.345437866862557e-02
    vertex    9.415203485478087e-03   -7.136077381616295e-03   -2.144124872505059e-02
  endloop
endfacet
facet normal   -8.227734440507877e-01   -1.303435389415486e-01   -5.532218556971501e-01
  outer loop
    vertex    8.922142060753237e-03   -5.068370903037198e-03   -2.119511660782341e-02
    vertex    9.415203485478087e-03   -7.136077381616295e-03   -2.144124872505059e-02
    vertex    7.681562740024365e-03   -7.281940652716839e-03   -1.882854301403141e-02
  endloop
endfacet
facet normal   -6.731163277004271e-02   -8.009121188625484e-01    5.949864888826752e-01
  outer loop
    vertex    4.148267411921499e-03   -1.824939935018434e-02   -7.825518762299360e-04
    vertex    1.330911563792433e-02   -1.685787308505027e-02    2.126962765628728e-03
    vertex    6.818343924780981e-03   -1.613804271531429e-02    2.361617547386463e-03
  endloop
endfacet
facet normal    7.020461117704084e-02   -6.639015665687807e-01    7.445173083797307e-01
  outer loop
    vertex   -1.077266890317493e-03   -1.863616456398122e-02   -6.346942357051121e-04
    vertex    4.148267411921499e-03   -1.824939935018434e-02   -7.825518762299360e-04
    vertex    2.720775556751556e-04   -1.619191227387499e-02    1.417659289347796e-03
  endloop
endfacet
facet normal   -3.540365526780842e-02   -7.569557052394761e-01   -6.525064302358143e-01
  outer loop
    vertex    3.388302296677195e-02   -7.506346079200290e-03   -4.016398000254554e-02
    vertex    2.562637725593839e-02   -6.908298704880313e-03   -4.040977058199201e-02
    vertex    3.332083512949906e-02   -6.771703490071336e-03   -4.098571657083149e-02
  endloop
endfacet
facet normal    1.278681103481502e-01   -9.802406568675344e-01   -1.509238250903349e-01
  outer loop
    vertex    2.693447859469391e-02   -1.332629613748113e-02   -1.621732340886777e-02
    vertex    1.803272633908074e-02   -1.554510411080664e-02   -9.348192276640218e-03
    vertex    2.104038961754255e-02   -1.336907271322629e-02   -2.093317712248271e-02
  endloop
endfacet
facet normal    1.894126214670337e-01   -9.804899479574783e-01    5.255778518285895e-02
  outer loop
    vertex    2.073529309052657e-02   -1.608790962279808e-02   -7.069560808665451e-04
    vertex    1.812851185747906e-02   -1.646892298856635e-02    1.579622231960746e-03
    vertex    1.465871298326757e-02   -1.736552023970232e-02   -2.642033810153493e-03
  endloop
endfacet
facet normal   -1.354427501937297e-01    9.907844107963812e-01   -1.229936106689374e-03
  outer loop
    vertex    9.618043602796644e-03   -3.834226506221580e-03   -2.066580135529605e-02
    vertex    4.108991817377787e-03   -4.579685475370658e-03   -1.450938459967942e-02
    vertex    6.054529262308124e-03   -4.312924430931705e-03   -1.386403230266906e-02
  endloop
endfacet
facet normal   -7.166396557676489e-01   -3.739868048326012e-01   -5.886947202008248e-01
  outer loop
    vertex    7.681562740024365e-03   -7.281940652716839e-03   -1.882854301403141e-02
    vertex    7.376249628078192e-03   -9.154594197415742e-03   -1.726721221277455e-02
    vertex    4.801829099168395e-03   -6.027723461121325e-03   -1.611971857529581e-02
  endloop
endfacet
facet normal    1.317770874094048e-01    9.657566550537577e-01    2.234924662114398e-01
  outer loop
    vertex   -4.014153025030112e-03   -5.775543668084564e-03   -4.287204222891691e-03
    vertex   -1.688224385025669e-02   -5.180178968351119e-03    7.274708912845606e-04
    vertex   -1.304492284101387e-02   -5.931043333542627e-03    1.709523107155829e-03
  endloop
endfacet
facet normal   -1.767665588848745e-01   -9.151710429585488e-01   -3.622368642065056e-01
  outer loop
    vertex    2.152204617965463e-02   -7.201615014663143e-03   -3.787755283059894e-02
    vertex    2.438754810804929e-02   -9.320139573489188e-03   -3.392354495287694e-02
    vertex    1.990670578911211e-02   -1.080031563757070e-02   -2.799737464259009e-02
  endloop
endfacet
facet normal    7.459362277814491e-02   -9.876405632660963e-01   -1.378474128602337e-01
  outer loop
    vertex    3.602456477541625e-02   -1.005325060269537e-02   -3.388605243474596e-02
    vertex    3.189370704329721e-02   -1.251116353186955e-02   -1.851108947800451e-02
    vertex    3.201394833239056e-02   -1.169341111594313e-02   -2.430500469733901e-02
  endloop
endfacet
facet normal   -1.501638459623514e-01   -9.366348259384967e-01   -3.164901613083054e-01
  outer loop
    vertex    1.422862695907317e-02   -1.483973904281619e-02   -1.334887254162321e-02
    vertex    1.990670578911211e-02   -1.080031563757070e-02   -2.799737464259009e-02
    vertex    2.104038961754255e-02   -1.336907271322629e-02   -2.093317712248271e-02
  endloop
endfacet
facet normal    1.844065330322515e-01    9.101060202868178e-01    3.710812073020076e-01
  outer loop
    vertex    8.634101492862857e-04   -7.676208135262824e-03   -1.826390567431847e-03
    vertex    1.291921694752788e-02   -9.523136223004103e-03   -3.287712650602966e-03
    vertex    4.134499274512706e-03   -5.506698323793275e-03   -8.772832733160768e-03
  endloop
endfacet
facet normal    1.705516130772413e-01    8.678981479835787e-01    4.665457662474552e-01
  outer loop
    vertex    9.899645663000084e-03   -1.145010775806840e-02    1.400804399870299e-03
    vertex    2.442489734624270e-02   -1.228640746244847e-02   -2.353344211158518e-03
    vertex    1.291921694752788e-02   -9.523136223004103e-03   -3.287712650602966e-03
  endloop
endfacet
facet normal   -7.812000346388501e-01   -3.196997274693968e-01   -5.362075998493987e-01
  outer loop
    vertex    7.376249628078192e-03   -9.154594197415742e-03   -1.726721221277455e-02
    vertex    7.681562740024365e-03   -7.281940652716839e-03   -1.882854301403141e-02
    vertex    9.415203485478087e-03   -7.136077381616295e-03   -2.144124872505059e-02
  endloop
endfacet
facet normal    9.436544730959848e-02    9.738484232841818e-01    2.066746496815043e-01
  outer loop
    vertex   -1.507323321513254e-02   -5.278735710854954e-03   -1.578698830424392e-03
    vertex   -4.014153025030112e-03   -5.775543668084564e-03   -4.287204222891691e-03
    vertex   -8.086942254816088e-03   -5.181353366078462e-03   -5.227429410510894e-03
  endloop
endfacet
facet normal   -3.813024842099769e-01    2.641910185564950e-01   -8.858958862357258e-01
  outer loop
    vertex   -1.516389233483691e-02   -9.879042064322354e-03   -5.283691095729241e-03
    vertex   -8.413125823843572e-03   -6.820092215463583e-03   -7.277082183911976e-03
    vertex   -9.606453809974248e-03   -1.082669255464750e-02   -7.958300946009602e-03
  endloop
endfacet
facet normal   -3.606047303599354e-01    8.999176572458535e-01   -2.451783812230863e-01
  outer loop
    vertex    1.775920956092533e-02   -2.889351357076046e-03   -3.678440535120021e-02
    vertex    1.695741548141409e-02   -2.547611862966860e-03   -3.435079705426575e-02
    vertex    1.916840441490691e-02   -1.905798382699262e-03   -3.524693554552955e-02
  endloop
endfacet
facet normal   -2.999595615011016e-01   -7.616281045505471e-01   -5.744100380588834e-01
  outer loop
    vertex    2.562637725593839e-02   -6.908298704880313e-03   -4.040977058199201e-02
    vertex    2.152204617965463e-02   -7.201615014663143e-03   -3.787755283059894e-02
    vertex    2.442896081274077e-02   -5.153480744996815e-03   -4.211124183184049e-02
  endloop
endfacet
facet normal    1.789053073398756e-01    9.107927408539900e-01   -3.720879925680234e-01
  outer loop
    vertex    2.928927325768545e-02   -3.252522212725448e-03   -3.897312939333552e-02
    vertex    2.696599003599956e-02   -4.105483510239244e-03   -4.217806661420068e-02
    vertex    2.248340670743119e-02   -2.258705598258104e-03   -3.981283584700011e-02
  endloop
endfacet
facet normal    7.208152593368832e-01   -1.930233395480873e-01   -6.657081585025119e-01
  outer loop
    vertex    3.512765992286615e-02   -7.222775594173839e-03   -3.889853420995494e-02
    vertex    3.388302296677195e-02   -7.506346079200290e-03   -4.016398000254554e-02
    vertex    3.332083512949906e-02   -6.771703490071336e-03   -4.098571657083149e-02
  endloop
endfacet
facet normal    2.812466873365235e-01   -9.559694682833838e-01   -8.380141151684821e-02
  outer loop
    vertex    2.604800813766550e-02   -1.381652383527969e-02   -8.787869558720275e-03
    vertex    2.073529309052657e-02   -1.608790962279808e-02   -7.069560808665451e-04
    vertex    2.168434326407835e-02   -1.517344308602013e-02   -7.953670193514711e-03
  endloop
endfacet
facet normal    4.253723808868622e-01   -8.364479327923671e-01    3.455621410195538e-01
  outer loop
    vertex    2.238346275837310e-02   -1.506016073711986e-02   -2.480731295398496e-04
    vertex    1.812851185747906e-02   -1.646892298856635e-02    1.579622231960746e-03
    vertex    2.073529309052657e-02   -1.608790962279808e-02   -7.069560808665451e-04
  endloop
endfacet
facet normal   -7.457349007006955e-01    5.690858458018151e-01   -3.464401217886814e-01
  outer loop
    vertex    1.695741548141409e-02   -2.547611862966860e-03   -3.435079705426575e-02
    vertex    8.922142060753237e-03   -5.068370903037198e-03   -2.119511660782341e-02
    vertex    9.618043602796644e-03   -3.834226506221580e-03   -2.066580135529605e-02
  endloop
endfacet
facet normal    1.868394200062553e-01   -9.808635195895302e-01    5.475205083068025e-02
  outer loop
    vertex    1.465871298326757e-02   -1.736552023970232e-02   -2.642033810153493e-03
    vertex    1.812851185747906e-02   -1.646892298856635e-02    1.579622231960746e-03
    vertex    8.264641859852616e-03   -1.860839997631462e-02   -3.088242716154305e-03
  endloop
endfacet
facet normal    2.156899357615325e-01    7.890719127613839e-01    5.751898539632604e-01
  outer loop
    vertex    1.388773060913365e-02   -1.418251310577634e-02    3.653755350557663e-03
    vertex    9.899645663000084e-03   -1.145010775806840e-02    1.400804399870299e-03
    vertex   -7.317475975193549e-03   -8.117281560538391e-03    3.284913290329700e-03
  endloop
endfacet
facet normal    2.166037615725045e-01    8.800395454909863e-01    4.226265595589797e-01
  outer loop
    vertex    9.899645663000084e-03   -1.145010775806840e-02    1.400804399870299e-03
    vertex    8.634101492862857e-04   -7.676208135262824e-03   -1.826390567431847e-03
    vertex   -7.317475975193549e-03   -8.117281560538391e-03    3.284913290329700e-03
  endloop
endfacet
facet normal    4.032298676048481e-01    9.020261480644615e-01   -1.541249560563344e-01
  outer loop
    vertex    3.332083512949906e-02   -6.771703490071336e-03   -4.098571657083149e-02
    vertex    3.398894965801723e-02   -6.116609350333533e-03   -3.540377969065427e-02
    vertex    3.512765992286615e-02   -7.222775594173839e-03   -3.889853420995494e-02
  endloop
endfacet
facet normal    6.881729677509512e-01   -4.374689290385279e-01   -5.788254508768010e-01
  outer loop
    vertex    3.504688374013044e-02   -8.869366423923145e-03   -3.775009759499388e-02
    vertex    3.388302296677195e-02   -7.506346079200290e-03   -4.016398000254554e-02
    vertex    3.512765992286615e-02   -7.222775594173839e-03   -3.889853420995494e-02
  endloop
endfacet
facet normal    7.438919267912334e-01   -5.709538870561235e-01    3.473275976802442e-01
  outer loop
    vertex    2.741294802625626e-02   -1.271548359071877e-02   -7.051242408972184e-03
    vertex    2.947990131701678e-02   -1.152193135262255e-02   -9.516138898694591e-03
    vertex    2.354244370665047e-02   -1.372267073728176e-02   -4.172187522528521e-04
  endloop
endfacet
facet normal    1.764544351532977e-01    9.526786627978805e-01    2.475221157076130e-01
  outer loop
    vertex    2.799385546564981e-02   -4.348378483178654e-03   -2.804321401087377e-02
    vertex    1.754837246156875e-02   -3.193207444083582e-03   -2.504289623952029e-02
    vertex    1.933868681910317e-02   -5.702142413141736e-03   -1.666263536168476e-02
  endloop
endfacet
facet normal    2.860793349660048e-01    9.581958665164196e-01    4.392663913395563e-03
  outer loop
    vertex    2.517528415955286e-02   -2.033989575706398e-03   -3.684814796334433e-02
    vertex    3.078402915532216e-02   -3.724847562931725e-03   -3.329060380560959e-02
    vertex    2.928927325768545e-02   -3.252522212725448e-03   -3.897312939333552e-02
  endloop
endfacet
facet normal    4.130265613095465e-01    7.600749538589162e-01   -5.016922604238357e-01
  outer loop
    vertex    2.696599003599956e-02   -4.105483510239244e-03   -4.217806661420068e-02
    vertex    2.928927325768545e-02   -3.252522212725448e-03   -3.897312939333552e-02
    vertex    3.332083512949906e-02   -6.771703490071336e-03   -4.098571657083149e-02
  endloop
endfacet
facet normal    5.103220067903215e-01   -3.424483283706681e-01    7.888603119574682e-01
  outer loop
    vertex    1.694124824939389e-02   -1.578415318730270e-02    2.958263641302726e-03
    vertex    2.238346275837310e-02   -1.506016073711986e-02   -2.480731295398496e-04
    vertex    2.354244370665047e-02   -1.372267073728176e-02   -4.172187522528521e-04
  endloop
endfacet
facet normal   -2.186878803282105e-01   -8.020671250735275e-01   -5.557552859612229e-01
  outer loop
    vertex    9.930991333532240e-03   -1.498111287359583e-02   -1.145373604181474e-02
    vertex    8.759139409268460e-03   -1.327462822541324e-02   -1.345541816787869e-02
    vertex    1.422862695907317e-02   -1.483973904281619e-02   -1.334887254162321e-02
  endloop
endfacet
facet normal    1.892369909730235e-01    8.593588760046439e-01    4.750701879506973e-01
  outer loop
    vertex    8.634101492862857e-04   -7.676208135262824e-03   -1.826390567431847e-03
    vertex    9.899645663000084e-03   -1.145010775806840e-02    1.400804399870299e-03
    vertex    1.291921694752788e-02   -9.523136223004103e-03   -3.287712650602966e-03
  endloop
endfacet
facet normal    1.392972918241852e-01    9.511394512700077e-01    2.755540032883513e-01
  outer loop
    vertex    6.054529262308124e-03   -4.312924430931705e-03   -1.386403230266906e-02
    vertex    4.134499274512706e-03   -5.506698323793275e-03   -8.772832733160768e-03
    vertex    1.223157978660939e-02   -4.776574511645348e-03   -1.538624036765634e-02
  endloop
endfacet
facet normal   -1.972401850975342e-01   -6.172067978966325e-01   -7.616771481493165e-01
  outer loop
    vertex    2.226079905013740e-03   -1.449309241022535e-02   -1.077629585379821e-02
    vertex    4.829540307968063e-03   -1.139138880302373e-02   -1.396386629502431e-02
    vertex    8.759139409268460e-03   -1.327462822541324e-02   -1.345541816787869e-02
  endloop
endfacet
facet normal    6.564144450680656e-03   -5.989650809242264e-01    8.007482399862428e-01
  outer loop
    vertex   -7.480361171004641e-03   -1.443769175740314e-02    2.793378780499473e-03
    vertex    2.720775556751556e-04   -1.619191227387499e-02    1.417659289347796e-03
    vertex   -4.409485914627090e-04   -1.349211159709219e-02    3.442973434906558e-03
  endloop
endfacet
facet normal    1.170705016331578e-01   -6.757308064335995e-01    7.277928104096372e-01
  outer loop
    vertex   -8.173579558970499e-03   -1.868706320362818e-02    4.595390318668600e-04
    vertex   -1.077266890317493e-03   -1.863616456398122e-02   -6.346942357051121e-04
    vertex    2.720775556751556e-04   -1.619191227387499e-02    1.417659289347796e-03
  endloop
endfacet
facet normal    8.612231496357278e-02    9.673688079620620e-01    2.382866682115778e-01
  outer loop
    vertex   -8.086942254816088e-03   -5.181353366078462e-03   -5.227429410510894e-03
    vertex   -4.014153025030112e-03   -5.775543668084564e-03   -4.287204222891691e-03
    vertex    6.054529262308124e-03   -4.312924430931705e-03   -1.386403230266906e-02
  endloop
endfacet
facet normal   -1.032810061312854e-01   -4.708266271662537e-01   -8.761594152457410e-01
  outer loop
    vertex   -3.803790329972561e-03   -1.631917563679817e-02   -9.084206896691233e-03
    vertex    1.184839477349178e-05   -1.196558081605342e-02   -1.187350679976828e-02
    vertex    2.226079905013740e-03   -1.449309241022535e-02   -1.077629585379821e-02
  endloop
endfacet
facet normal    1.752706024578349e-01   -9.221372197823630e-01   -3.448813764269125e-01
  outer loop
    vertex   -3.968750159509247e-03   -1.869855944910506e-02   -6.724409912279690e-03
    vertex    2.912826152152056e-03   -1.722086535960195e-02   -7.178185337906196e-03
    vertex    1.937377399430447e-03   -1.864862193432298e-02   -3.856405543206968e-03
  endloop
endfacet
facet normal   -9.082424357492344e-02   -9.276341274848102e-01   -3.622787356505181e-01
  outer loop
    vertex    3.504688374013044e-02   -8.869366423923145e-03   -3.775009759499388e-02
    vertex    2.438754810804929e-02   -9.320139573489188e-03   -3.392354495287694e-02
    vertex    2.562637725593839e-02   -6.908298704880313e-03   -4.040977058199201e-02
  endloop
endfacet
facet normal    2.226450251549396e-01    9.292867058160971e-01    2.947124211281619e-01
  outer loop
    vertex    2.637655748054590e-02   -7.482951722569027e-03   -1.636425796023836e-02
    vertex    1.933868681910317e-02   -5.702142413141736e-03   -1.666263536168476e-02
    vertex    2.040737684205752e-02   -7.677964143918579e-03   -1.123983592787680e-02
  endloop
endfacet
facet normal    1.630913376910202e-01    9.021549778726370e-01    3.993965591611618e-01
  outer loop
    vertex    2.366674679620396e-02   -1.103687249494037e-02   -4.257185967534666e-03
    vertex    4.134499274512706e-03   -5.506698323793275e-03   -8.772832733160768e-03
    vertex    1.291921694752788e-02   -9.523136223004103e-03   -3.287712650602966e-03
  endloop
endfacet
facet normal    1.037298094696697e-01   -9.688518868869860e-01    2.248691795309290e-01
  outer loop
    vertex    1.812851185747906e-02   -1.646892298856635e-02    1.579622231960746e-03
    vertex    1.330911563792433e-02   -1.685787308505027e-02    2.126962765628728e-03
    vertex    8.264641859852616e-03   -1.860839997631462e-02   -3.088242716154305e-03
  endloop
endfacet
facet normal   -7.225523168951004e-02   -8.312229240454581e-01    5.512237585906599e-01
  outer loop
    vertex    1.330911563792433e-02   -1.685787308505027e-02    2.126962765628728e-03
    vertex    1.165101388499038e-02   -1.531059336906502e-02    4.242850960463546e-03
    vertex    6.818343924780981e-03   -1.613804271531429e-02    2.361617547386463e-03
  endloop
endfacet
facet normal   -5.461114370619671e-01   -4.352659966434663e-01   -7.157554124671942e-01
  outer loop
    vertex    7.376249628078192e-03   -9.154594197415742e-03   -1.726721221277455e-02
    vertex    4.829540307968063e-03   -1.139138880302373e-02   -1.396386629502431e-02
    vertex    2.754307849996048e-03   -7.970491157845799e-03   -1.446081292915015e-02
  endloop
endfacet
facet normal   -1.078451897310030e-01   -3.002381348665286e-01    9.477481086363361e-01
  outer loop
    vertex    1.165101388499038e-02   -1.531059336906502e-02    4.242850960463546e-03
    vertex    6.300490606209822e-03   -1.298123182189167e-02    4.371930583074370e-03
    vertex   -4.409485914627090e-04   -1.349211159709219e-02    3.442973434906558e-03
  endloop
endfacet
facet normal    1.729301010242016e-01    6.496180863846968e-01    7.403320349692047e-01
  outer loop
    vertex    1.388773060913365e-02   -1.418251310577634e-02    3.653755350557663e-03
    vertex   -7.317475975193549e-03   -8.117281560538391e-03    3.284913290329700e-03
    vertex    6.300490606209822e-03   -1.298123182189167e-02    4.371930583074370e-03
  endloop
endfacet
facet normal    1.429686819439540e-02   -7.046058690880390e-01   -7.094548391592810e-01
  outer loop
    vertex    2.226079905013740e-03   -1.449309241022535e-02   -1.077629585379821e-02
    vertex   -3.968750159509247e-03   -1.869855944910506e-02   -6.724409912279690e-03
    vertex   -3.803790329972561e-03   -1.631917563679817e-02   -9.084206896691233e-03
  endloop
endfacet
facet normal    2.183188302146724e-01    8.783615703569931e-01    4.252268101774558e-01
  outer loop
    vertex    8.634101492862857e-04   -7.676208135262824e-03   -1.826390567431847e-03
    vertex   -1.304492284101387e-02   -5.931043333542627e-03    1.709523107155829e-03
    vertex   -7.317475975193549e-03   -8.117281560538391e-03    3.284913290329700e-03
  endloop
endfacet
facet normal   -4.448515369304383e-01    8.525531450559229e-02   -8.915372350267707e-01
  outer loop
    vertex   -2.742669742073840e-03   -1.064079219306348e-02   -1.095166300890251e-02
    vertex   -7.050389270408079e-03   -1.494540503595578e-02   -9.213872964662086e-03
    vertex   -4.224813940876163e-03   -7.860208598858120e-03   -9.946215767435471e-03
  endloop
endfacet
facet normal    7.707073027396696e-02   -2.481496179540915e-01   -9.656510082034170e-01
  outer loop
    vertex    2.442896081274077e-02   -5.153480744996815e-03   -4.211124183184049e-02
    vertex    2.696599003599956e-02   -4.105483510239244e-03   -4.217806661420068e-02
    vertex    3.332083512949906e-02   -6.771703490071336e-03   -4.098571657083149e-02
  endloop
endfacet
facet normal    1.830260475859744e-02   -9.790796387431296e-01   -2.026525984478689e-01
  outer loop
    vertex    2.621923851744085e-02   -1.090650596530227e-02   -2.863014585398608e-02
    vertex    3.107939435482062e-02   -1.028251427322695e-02   -3.120590384128543e-02
    vertex    3.201394833239056e-02   -1.169341111594313e-02   -2.430500469733901e-02
  endloop
endfacet
facet normal   -7.595443282348234e-02    9.937600950709737e-01    8.168107234232644e-02
  outer loop
    vertex    9.618043602796644e-03   -3.834226506221580e-03   -2.066580135529605e-02
    vertex    1.951777589976881e-02   -2.161536060682800e-03   -3.181066562258818e-02
    vertex    1.916840441490691e-02   -1.905798382699262e-03   -3.524693554552955e-02
  endloop
endfacet
facet normal    3.585298504955923e-01    2.996122309476730e-01    8.841316968473456e-01
  outer loop
    vertex    1.388773060913365e-02   -1.418251310577634e-02    3.653755350557663e-03
    vertex    1.694124824939389e-02   -1.578415318730270e-02    2.958263641302726e-03
    vertex    2.354244370665047e-02   -1.372267073728176e-02   -4.172187522528521e-04
  endloop
endfacet
facet normal    6.970368914630025e-02    9.829543192604431e-01    1.701240781507278e-01
  outer loop
    vertex    6.054529262308124e-03   -4.312924430931705e-03   -1.386403230266906e-02
    vertex    1.754837246156875e-02   -3.193207444083582e-03   -2.504289623952029e-02
    vertex    1.951777589976881e-02   -2.161536060682800e-03   -3.181066562258818e-02
  endloop
endfacet
facet normal   -4.021786591461490e-01   -2.173396757696970e-01   -8.893906855053795e-01
  outer loop
    vertex   -3.803790329972561e-03   -1.631917563679817e-02   -9.084206896691233e-03
    vertex   -2.742669742073840e-03   -1.064079219306348e-02   -1.095166300890251e-02
    vertex    1.184839477349178e-05   -1.196558081605342e-02   -1.187350679976828e-02
  endloop
endfacet
facet normal    1.266858045399247e-01   -7.786758235470088e-01   -6.145035953934358e-01
  outer loop
    vertex   -3.968750159509247e-03   -1.869855944910506e-02   -6.724409912279690e-03
    vertex    2.226079905013740e-03   -1.449309241022535e-02   -1.077629585379821e-02
    vertex    2.912826152152056e-03   -1.722086535960195e-02   -7.178185337906196e-03
  endloop
endfacet
facet normal    8.044250858741917e-01   -3.658807928776787e-01   -4.680080411910681e-01
  outer loop
    vertex    3.674737532899864e-02   -8.434067198417234e-03   -3.516755550114328e-02
    vertex    3.504688374013044e-02   -8.869366423923145e-03   -3.775009759499388e-02
    vertex    3.512765992286615e-02   -7.222775594173839e-03   -3.889853420995494e-02
  endloop
endfacet
facet normal   -3.095596558962206e-01    9.040831488575912e-01   -2.946293932946207e-01
  outer loop
    vertex    1.775920956092533e-02   -2.889351357076046e-03   -3.678440535120021e-02
    vertex    1.916840441490691e-02   -1.905798382699262e-03   -3.524693554552955e-02
    vertex    2.248340670743119e-02   -2.258705598258104e-03   -3.981283584700011e-02
  endloop
endfacet
facet normal    9.118786153118994e-04    9.970765323874390e-01   -7.640390722751786e-02
  outer loop
    vertex    2.248340670743119e-02   -2.258705598258104e-03   -3.981283584700011e-02
    vertex    1.916840441490691e-02   -1.905798382699262e-03   -3.524693554552955e-02
    vertex    2.517528415955286e-02   -2.033989575706398e-03   -3.684814796334433e-02
  endloop
endfacet
facet normal    9.091604316783531e-01   -4.162392360105651e-01   -1.312279984499936e-02
  outer loop
    vertex    3.602456477541625e-02   -1.005325060269537e-02   -3.388605243474596e-02
    vertex    3.674737532899864e-02   -8.434067198417234e-03   -3.516755550114328e-02
    vertex    3.597121824107095e-02   -1.033584832132514e-02   -2.861829699205275e-02
  endloop
endfacet
facet normal    2.789672958627276e-01    9.249265880221825e-01    2.582403039974222e-01
  outer loop
    vertex    3.078402915532216e-02   -3.724847562931725e-03   -3.329060380560959e-02
    vertex    2.799385546564981e-02   -4.348378483178654e-03   -2.804321401087377e-02
    vertex    3.130014771190435e-02   -6.701410989778687e-03   -2.318713654676949e-02
  endloop
endfacet
facet normal   -7.218886843338101e-01    6.116196790495959e-01   -3.237253398022308e-01
  outer loop
    vertex    1.775920956092533e-02   -2.889351357076046e-03   -3.678440535120021e-02
    vertex    8.922142060753237e-03   -5.068370903037198e-03   -2.119511660782341e-02
    vertex    1.695741548141409e-02   -2.547611862966860e-03   -3.435079705426575e-02
  endloop
endfacet
facet normal   -5.309635780975511e-01   -6.646041094655422e-01   -5.257176584587580e-01
  outer loop
    vertex    1.002970574660199e-02   -1.016431640394212e-02   -1.867067092348869e-02
    vertex    8.759139409268460e-03   -1.327462822541324e-02   -1.345541816787869e-02
    vertex    7.376249628078192e-03   -9.154594197415742e-03   -1.726721221277455e-02
  endloop
endfacet
facet normal   -1.088660069413275e-01   -9.421039269874276e-01   -3.171567172353731e-01
  outer loop
    vertex    1.422862695907317e-02   -1.483973904281619e-02   -1.334887254162321e-02
    vertex    1.284030589424875e-02   -1.606151221662533e-02   -9.243084441139580e-03
    vertex    9.930991333532240e-03   -1.498111287359583e-02   -1.145373604181474e-02
  endloop
endfacet
facet normal    1.060413230802977e-02   -8.928161106204714e-01   -4.502965078640161e-01
  outer loop
    vertex    1.284030589424875e-02   -1.606151221662533e-02   -9.243084441139580e-03
    vertex    2.912826152152056e-03   -1.722086535960195e-02   -7.178185337906196e-03
    vertex    9.930991333532240e-03   -1.498111287359583e-02   -1.145373604181474e-02
  endloop
endfacet
facet normal    1.748886231408923e-01   -9.845860153496248e-01    2.085155589216770e-03
  outer loop
    vertex    1.937377399430447e-03   -1.864862193432298e-02   -3.856405543206968e-03
    vertex    4.148267411921499e-03   -1.824939935018434e-02   -7.825518762299360e-04
    vertex   -3.183665399107919e-03   -1.955658318313464e-02   -3.066931591657663e-03
  endloop
endfacet
facet normal   -4.204739240515831e-01   -2.719390266272719e-01   -8.655927708742001e-01
  outer loop
    vertex    2.754307849996048e-03   -7.970491157845799e-03   -1.446081292915015e-02
    vertex    1.184839477349178e-05   -1.196558081605342e-02   -1.187350679976828e-02
    vertex   -2.742669742073840e-03   -1.064079219306348e-02   -1.095166300890251e-02
  endloop
endfacet
facet normal   -8.744771275242709e-02   -2.964291481574775e-01   -9.510429315530404e-01
  outer loop
    vertex   -3.803790329972561e-03   -1.631917563679817e-02   -9.084206896691233e-03
    vertex   -7.050389270408079e-03   -1.494540503595578e-02   -9.213872964662086e-03
    vertex   -2.742669742073840e-03   -1.064079219306348e-02   -1.095166300890251e-02
  endloop
endfacet
facet normal    6.387348439599433e-01    7.667772020749076e-01    6.380063863037076e-02
  outer loop
    vertex    3.674737532899864e-02   -8.434067198417234e-03   -3.516755550114328e-02
    vertex    3.398894965801723e-02   -6.116609350333533e-03   -3.540377969065427e-02
    vertex    3.447827166062035e-02   -6.998992291149440e-03   -2.969781628098261e-02
  endloop
endfacet
facet normal    3.796097057244708e-01   -9.240160141189792e-01   -4.572610820368899e-02
  outer loop
    vertex    3.602456477541625e-02   -1.005325060269537e-02   -3.388605243474596e-02
    vertex    3.597121824107095e-02   -1.033584832132514e-02   -2.861829699205275e-02
    vertex    3.189370704329721e-02   -1.251116353186955e-02   -1.851108947800451e-02
  endloop
endfacet
facet normal    5.210444805237447e-01    8.255868595402305e-01    2.166079099900110e-01
  outer loop
    vertex    3.447827166062035e-02   -6.998992291149440e-03   -2.969781628098261e-02
    vertex    3.078402915532216e-02   -3.724847562931725e-03   -3.329060380560959e-02
    vertex    3.130014771190435e-02   -6.701410989778687e-03   -2.318713654676949e-02
  endloop
endfacet
facet normal    8.226743685217098e-01   -5.413830274026250e-01    1.735260816643263e-01
  outer loop
    vertex    3.597121824107095e-02   -1.033584832132514e-02   -2.861829699205275e-02
    vertex    3.491731597073525e-02   -9.928197268167896e-03   -2.234999579155502e-02
    vertex    3.299677742486335e-02   -1.158317512308263e-02   -1.840821996449591e-02
  endloop
endfacet
facet normal    1.400997846212800e-01   -9.889469450922873e-01   -4.853854284693437e-02
  outer loop
    vertex    2.604800813766550e-02   -1.381652383527969e-02   -8.787869558720275e-03
    vertex    2.693447859469391e-02   -1.332629613748113e-02   -1.621732340886777e-02
    vertex    3.189370704329721e-02   -1.251116353186955e-02   -1.851108947800451e-02
  endloop
endfacet
facet normal    2.446804907492743e-01    9.274443222733101e-01    2.828046791156303e-01
  outer loop
    vertex    2.799385546564981e-02   -4.348378483178654e-03   -2.804321401087377e-02
    vertex    2.637655748054590e-02   -7.482951722569027e-03   -1.636425796023836e-02
    vertex    3.130014771190435e-02   -6.701410989778687e-03   -2.318713654676949e-02
  endloop
endfacet
facet normal    2.922913897775826e-01    8.979533648621809e-01    3.290068357870037e-01
  outer loop
    vertex    2.637655748054590e-02   -7.482951722569027e-03   -1.636425796023836e-02
    vertex    2.366674679620396e-02   -1.103687249494037e-02   -4.257185967534666e-03
    vertex    2.953309457587302e-02   -1.021762716897673e-02   -1.170483378516569e-02
  endloop
endfacet
facet normal    3.029171724062732e-01    8.971986652602820e-01    3.213654332944917e-01
  outer loop
    vertex    2.637655748054590e-02   -7.482951722569027e-03   -1.636425796023836e-02
    vertex    2.953309457587302e-02   -1.021762716897673e-02   -1.170483378516569e-02
    vertex    3.130014771190435e-02   -6.701410989778687e-03   -2.318713654676949e-02
  endloop
endfacet
facet normal    1.770526520491016e-01    9.674725770194397e-01    1.806908163624928e-01
  outer loop
    vertex    2.517528415955286e-02   -2.033989575706398e-03   -3.684814796334433e-02
    vertex    2.260752653281297e-02   -2.627546578382925e-03   -3.115401009107464e-02
    vertex    3.078402915532216e-02   -3.724847562931725e-03   -3.329060380560959e-02
  endloop
endfacet
facet normal   -4.006717234099594e-02   -7.095086926946376e-01   -7.035567046737194e-01
  outer loop
    vertex    2.562637725593839e-02   -6.908298704880313e-03   -4.040977058199201e-02
    vertex    2.442896081274077e-02   -5.153480744996815e-03   -4.211124183184049e-02
    vertex    3.332083512949906e-02   -6.771703490071336e-03   -4.098571657083149e-02
  endloop
endfacet
facet normal    9.954360574356445e-03   -9.813671245986159e-01   -1.918840208631261e-01
  outer loop
    vertex    2.693447859469391e-02   -1.332629613748113e-02   -1.621732340886777e-02
    vertex    2.621923851744085e-02   -1.090650596530227e-02   -2.863014585398608e-02
    vertex    3.201394833239056e-02   -1.169341111594313e-02   -2.430500469733901e-02
  endloop
endfacet
facet normal    1.689696482424911e-01    9.535501349239058e-01    2.493820325512845e-01
  outer loop
    vertex    1.223157978660939e-02   -4.776574511645348e-03   -1.538624036765634e-02
    vertex    1.933868681910317e-02   -5.702142413141736e-03   -1.666263536168476e-02
    vertex    1.754837246156875e-02   -3.193207444083582e-03   -2.504289623952029e-02
  endloop
endfacet
facet normal   -3.400954866712764e-01   -8.643581651060214e-01   -3.704322102090740e-01
  outer loop
    vertex    1.990670578911211e-02   -1.080031563757070e-02   -2.799737464259009e-02
    vertex    1.365780238119923e-02   -1.177241334466252e-02   -1.999195731020459e-02
    vertex    2.152204617965463e-02   -7.201615014663143e-03   -3.787755283059894e-02
  endloop
endfacet
facet normal   -5.371850218618639e-01   -6.261004128871906e-01   -5.651818515042377e-01
  outer loop
    vertex    7.376249628078192e-03   -9.154594197415742e-03   -1.726721221277455e-02
    vertex    9.415203485478087e-03   -7.136077381616295e-03   -2.144124872505059e-02
    vertex    1.002970574660199e-02   -1.016431640394212e-02   -1.867067092348869e-02
  endloop
endfacet
facet normal   -3.395927936418159e-01   -8.647057481195645e-01   -3.700820229023987e-01
  outer loop
    vertex    1.422862695907317e-02   -1.483973904281619e-02   -1.334887254162321e-02
    vertex    1.365780238119923e-02   -1.177241334466252e-02   -1.999195731020459e-02
    vertex    1.990670578911211e-02   -1.080031563757070e-02   -2.799737464259009e-02
  endloop
endfacet
facet normal    3.386398360157592e-02   -9.321282447804564e-01   -3.605414898415128e-01
  outer loop
    vertex    8.264641859852616e-03   -1.860839997631462e-02   -3.088242716154305e-03
    vertex    2.912826152152056e-03   -1.722086535960195e-02   -7.178185337906196e-03
    vertex    1.284030589424875e-02   -1.606151221662533e-02   -9.243084441139580e-03
  endloop
endfacet
facet normal   -7.717967852657607e-01    2.706207552226471e-01   -5.754077937395023e-01
  outer loop
    vertex    4.801829099168395e-03   -6.027723461121325e-03   -1.611971857529581e-02
    vertex    4.108991817377787e-03   -4.579685475370658e-03   -1.450938459967942e-02
    vertex    8.922142060753237e-03   -5.068370903037198e-03   -2.119511660782341e-02
  endloop
endfacet
facet normal   -2.497859695950796e-01   -7.014320659487554e-01   -6.675327903948289e-01
  outer loop
    vertex    8.759139409268460e-03   -1.327462822541324e-02   -1.345541816787869e-02
    vertex    4.829540307968063e-03   -1.139138880302373e-02   -1.396386629502431e-02
    vertex    7.376249628078192e-03   -9.154594197415742e-03   -1.726721221277455e-02
  endloop
endfacet
facet normal   -9.250257196517367e-02   -8.018899452919060e-01   -5.902675578240529e-01
  outer loop
    vertex    2.912826152152056e-03   -1.722086535960195e-02   -7.178185337906196e-03
    vertex    2.226079905013740e-03   -1.449309241022535e-02   -1.077629585379821e-02
    vertex    8.759139409268460e-03   -1.327462822541324e-02   -1.345541816787869e-02
  endloop
endfacet
facet normal   -1.163655630140984e-01   -7.884232014173378e-01   -6.040264159879499e-01
  outer loop
    vertex    2.912826152152056e-03   -1.722086535960195e-02   -7.178185337906196e-03
    vertex    8.759139409268460e-03   -1.327462822541324e-02   -1.345541816787869e-02
    vertex    9.930991333532240e-03   -1.498111287359583e-02   -1.145373604181474e-02
  endloop
endfacet
facet normal    5.216839965809109e-02   -9.229458882715810e-01   -3.813782183078841e-01
  outer loop
    vertex    8.264641859852616e-03   -1.860839997631462e-02   -3.088242716154305e-03
    vertex    1.937377399430447e-03   -1.864862193432298e-02   -3.856405543206968e-03
    vertex    2.912826152152056e-03   -1.722086535960195e-02   -7.178185337906196e-03
  endloop
endfacet
facet normal    4.474829578470848e-02   -4.865099702578924e-01    8.725283026148944e-01
  outer loop
    vertex   -7.480361171004641e-03   -1.443769175740314e-02    2.793378780499473e-03
    vertex   -8.173579558970499e-03   -1.868706320362818e-02    4.595390318668600e-04
    vertex    2.720775556751556e-04   -1.619191227387499e-02    1.417659289347796e-03
  endloop
endfacet
facet normal    1.341249644881909e-01    5.584667573447741e-01    8.186118584786413e-01
  outer loop
    vertex   -7.317475975193549e-03   -8.117281560538391e-03    3.284913290329700e-03
    vertex   -1.320473586289203e-02   -7.909564968373054e-03    4.107801090842308e-03
    vertex    6.300490606209822e-03   -1.298123182189167e-02    4.371930583074370e-03
  endloop
endfacet
facet normal   -8.968068561677690e-02   -4.406885806318490e-01    8.931690486845092e-01
  outer loop
    vertex   -6.797991188984736e-03   -1.079607346338509e-02    4.134902113740776e-03
    vertex   -4.409485914627090e-04   -1.349211159709219e-02    3.442973434906558e-03
    vertex    6.300490606209822e-03   -1.298123182189167e-02    4.371930583074370e-03
  endloop
endfacet
facet normal   -2.363899586662807e-01    9.261320071116860e-01   -2.939375662364954e-01
  outer loop
    vertex   -8.743513639573753e-03   -5.632483212178662e-03   -6.120812691507225e-03
    vertex   -8.086942254816088e-03   -5.181353366078462e-03   -5.227429410510894e-03
    vertex    6.054529262308124e-03   -4.312924430931705e-03   -1.386403230266906e-02
  endloop
endfacet
facet normal   -5.124541161762305e-01    1.188709162317576e-01   -8.504472259277827e-01
  outer loop
    vertex   -4.224813940876163e-03   -7.860208598858120e-03   -9.946215767435471e-03
    vertex   -8.413125823843572e-03   -6.820092215463583e-03   -7.277082183911976e-03
    vertex    4.108991817377787e-03   -4.579685475370658e-03   -1.450938459967942e-02
  endloop
endfacet
facet normal   -5.393118420249898e-01   -1.405820451553994e-01   -8.302887603909485e-01
  outer loop
    vertex    2.754307849996048e-03   -7.970491157845799e-03   -1.446081292915015e-02
    vertex   -4.224813940876163e-03   -7.860208598858120e-03   -9.946215767435471e-03
    vertex    4.801829099168395e-03   -6.027723461121325e-03   -1.611971857529581e-02
  endloop
endfacet
facet normal    4.260963903842057e-02    9.990487763591699e-01   -9.271521787760962e-03
  outer loop
    vertex   -1.507323321513254e-02   -5.278735710854954e-03   -1.578698830424392e-03
    vertex   -1.688224385025669e-02   -5.180178968351119e-03    7.274708912845606e-04
    vertex   -4.014153025030112e-03   -5.775543668084564e-03   -4.287204222891691e-03
  endloop
endfacet
facet normal   -1.856562708323752e-01    9.252638602173261e-01   -3.307847307182545e-01
  outer loop
    vertex   -8.743513639573753e-03   -5.632483212178662e-03   -6.120812691507225e-03
    vertex   -1.507323321513254e-02   -5.278735710854954e-03   -1.578698830424392e-03
    vertex   -8.086942254816088e-03   -5.181353366078462e-03   -5.227429410510894e-03
  endloop
endfacet
facet normal    7.115245873136972e-01   -6.418970977320716e-01    2.858336536715301e-01
  outer loop
    vertex    2.741294802625626e-02   -1.271548359071877e-02   -7.051242408972184e-03
    vertex    3.299677742486335e-02   -1.158317512308263e-02   -1.840821996449591e-02
    vertex    2.947990131701678e-02   -1.152193135262255e-02   -9.516138898694591e-03
  endloop
endfacet
facet normal    4.744004359942920e-01    8.590466741060718e-01    1.923097450357682e-01
  outer loop
    vertex    3.447827166062035e-02   -6.998992291149440e-03   -2.969781628098261e-02
    vertex    3.130014771190435e-02   -6.701410989778687e-03   -2.318713654676949e-02
    vertex    3.534661062691546e-02   -8.720653771500785e-03   -2.414923014858116e-02
  endloop
endfacet
facet normal    3.996179765876939e-02    9.967379895902650e-01    7.011729341208416e-02
  outer loop
    vertex    2.517528415955286e-02   -2.033989575706398e-03   -3.684814796334433e-02
    vertex    1.916840441490691e-02   -1.905798382699262e-03   -3.524693554552955e-02
    vertex    1.951777589976881e-02   -2.161536060682800e-03   -3.181066562258818e-02
  endloop
endfacet
facet normal   -2.306182890389636e-01    5.052639838680837e-01   -8.315789267210261e-01
  outer loop
    vertex    2.248340670743119e-02   -2.258705598258104e-03   -3.981283584700011e-02
    vertex    2.696599003599956e-02   -4.105483510239244e-03   -4.217806661420068e-02
    vertex    2.442896081274077e-02   -5.153480744996815e-03   -4.211124183184049e-02
  endloop
endfacet
facet normal    1.900056242239217e-02   -9.559086522075123e-01   -2.930488479118284e-01
  outer loop
    vertex    2.438754810804929e-02   -9.320139573489188e-03   -3.392354495287694e-02
    vertex    2.621923851744085e-02   -1.090650596530227e-02   -2.863014585398608e-02
    vertex    2.104038961754255e-02   -1.336907271322629e-02   -2.093317712248271e-02
  endloop
endfacet
facet normal    1.090172242455689e-01    9.774724698941929e-01    1.807285683469483e-01
  outer loop
    vertex    2.260752653281297e-02   -2.627546578382925e-03   -3.115401009107464e-02
    vertex    1.951777589976881e-02   -2.161536060682800e-03   -3.181066562258818e-02
    vertex    1.754837246156875e-02   -3.193207444083582e-03   -2.504289623952029e-02
  endloop
endfacet
facet normal    2.241528174981371e-01    9.330251102908935e-01    2.814598692075175e-01
  outer loop
    vertex    2.637655748054590e-02   -7.482951722569027e-03   -1.636425796023836e-02
    vertex    2.799385546564981e-02   -4.348378483178654e-03   -2.804321401087377e-02
    vertex    1.933868681910317e-02   -5.702142413141736e-03   -1.666263536168476e-02
  endloop
endfacet
facet normal    7.638271283959386e-01    3.006112203758395e-01    5.711400984964745e-01
  outer loop
    vertex    2.442489734624270e-02   -1.228640746244847e-02   -2.353344211158518e-03
    vertex    2.354244370665047e-02   -1.372267073728176e-02   -4.172187522528521e-04
    vertex    2.947990131701678e-02   -1.152193135262255e-02   -9.516138898694591e-03
  endloop
endfacet
facet normal    3.844582017993966e-01    8.345415703694425e-01    3.946292670272685e-01
  outer loop
    vertex    2.366674679620396e-02   -1.103687249494037e-02   -4.257185967534666e-03
    vertex    2.442489734624270e-02   -1.228640746244847e-02   -2.353344211158518e-03
    vertex    2.953309457587302e-02   -1.021762716897673e-02   -1.170483378516569e-02
  endloop
endfacet
facet normal   -5.881261656829629e-02   -9.795703615539783e-01   -1.923096016776043e-01
  outer loop
    vertex    3.107939435482062e-02   -1.028251427322695e-02   -3.120590384128543e-02
    vertex    3.602456477541625e-02   -1.005325060269537e-02   -3.388605243474596e-02
    vertex    3.201394833239056e-02   -1.169341111594313e-02   -2.430500469733901e-02
  endloop
endfacet
facet normal    6.738408308720730e-01    6.274019888018105e-01    3.902630895910695e-01
  outer loop
    vertex    2.947990131701678e-02   -1.152193135262255e-02   -9.516138898694591e-03
    vertex    3.534661062691546e-02   -8.720653771500785e-03   -2.414923014858116e-02
    vertex    2.953309457587302e-02   -1.021762716897673e-02   -1.170483378516569e-02
  endloop
endfacet
facet normal    9.114313514033671e-01   -1.958944798906388e-01    3.618262627662732e-01
  outer loop
    vertex    3.299677742486335e-02   -1.158317512308263e-02   -1.840821996449591e-02
    vertex    3.491731597073525e-02   -9.928197268167896e-03   -2.234999579155502e-02
    vertex    2.947990131701678e-02   -1.152193135262255e-02   -9.516138898694591e-03
  endloop
endfacet
facet normal    5.219751715347508e-01    7.270823099384109e-01    4.459744778301692e-01
  outer loop
    vertex    2.947990131701678e-02   -1.152193135262255e-02   -9.516138898694591e-03
    vertex    2.953309457587302e-02   -1.021762716897673e-02   -1.170483378516569e-02
    vertex    2.442489734624270e-02   -1.228640746244847e-02   -2.353344211158518e-03
  endloop
endfacet
facet normal    9.860992090685906e-02   -9.856412982051334e-01   -1.370668259326180e-01
  outer loop
    vertex    3.201394833239056e-02   -1.169341111594313e-02   -2.430500469733901e-02
    vertex    3.189370704329721e-02   -1.251116353186955e-02   -1.851108947800451e-02
    vertex    2.693447859469391e-02   -1.332629613748113e-02   -1.621732340886777e-02
  endloop
endfacet
facet normal    2.918858563254869e-01   -9.560356911534142e-01   -2.825604568850574e-02
  outer loop
    vertex    2.693447859469391e-02   -1.332629613748113e-02   -1.621732340886777e-02
    vertex    2.604800813766550e-02   -1.381652383527969e-02   -8.787869558720275e-03
    vertex    2.168434326407835e-02   -1.517344308602013e-02   -7.953670193514711e-03
  endloop
endfacet
facet normal    1.670839821988296e-01   -9.695352490778738e-01   -1.791210308369354e-01
  outer loop
    vertex    1.803272633908074e-02   -1.554510411080664e-02   -9.348192276640218e-03
    vertex    2.168434326407835e-02   -1.517344308602013e-02   -7.953670193514711e-03
    vertex    1.465871298326757e-02   -1.736552023970232e-02   -2.642033810153493e-03
  endloop
endfacet
facet normal    2.479187422933664e-01    9.131587917400994e-01    3.235387431010961e-01
  outer loop
    vertex    2.366674679620396e-02   -1.103687249494037e-02   -4.257185967534666e-03
    vertex    2.637655748054590e-02   -7.482951722569027e-03   -1.636425796023836e-02
    vertex    2.040737684205752e-02   -7.677964143918579e-03   -1.123983592787680e-02
  endloop
endfacet
facet normal   -3.058319227793891e-01    9.491438483939573e-01   -7.478495881506178e-02
  outer loop
    vertex    1.916840441490691e-02   -1.905798382699262e-03   -3.524693554552955e-02
    vertex    1.695741548141409e-02   -2.547611862966860e-03   -3.435079705426575e-02
    vertex    9.618043602796644e-03   -3.834226506221580e-03   -2.066580135529605e-02
  endloop
endfacet
facet normal   -6.895442474481677e-01   -5.534971800584596e-01   -4.670862901846654e-01
  outer loop
    vertex    1.600372206016648e-02   -5.206359842032511e-03   -3.345437866862557e-02
    vertex    1.802764492341075e-02   -6.651352403065957e-03   -3.472991398706940e-02
    vertex    9.415203485478087e-03   -7.136077381616295e-03   -2.144124872505059e-02
  endloop
endfacet
facet normal   -6.839383659135214e-01   -5.631285619252040e-01   -4.638044139242249e-01
  outer loop
    vertex    9.415203485478087e-03   -7.136077381616295e-03   -2.144124872505059e-02
    vertex    1.802764492341075e-02   -6.651352403065957e-03   -3.472991398706940e-02
    vertex    1.002970574660199e-02   -1.016431640394212e-02   -1.867067092348869e-02
  endloop
endfacet
facet normal    1.766572361787447e-01    9.166664756032876e-01    3.584896001430651e-01
  outer loop
    vertex    2.366674679620396e-02   -1.103687249494037e-02   -4.257185967534666e-03
    vertex    2.040737684205752e-02   -7.677964143918579e-03   -1.123983592787680e-02
    vertex    4.134499274512706e-03   -5.506698323793275e-03   -8.772832733160768e-03
  endloop
endfacet
facet normal    1.767843728903973e-01    9.354724712735868e-01    3.060041519179718e-01
  outer loop
    vertex    2.040737684205752e-02   -7.677964143918579e-03   -1.123983592787680e-02
    vertex    1.933868681910317e-02   -5.702142413141736e-03   -1.666263536168476e-02
    vertex    1.223157978660939e-02   -4.776574511645348e-03   -1.538624036765634e-02
  endloop
endfacet
facet normal   -4.974309276568684e-01   -6.863687509074279e-01   -5.305284252405376e-01
  outer loop
    vertex    1.002970574660199e-02   -1.016431640394212e-02   -1.867067092348869e-02
    vertex    1.365780238119923e-02   -1.177241334466252e-02   -1.999195731020459e-02
    vertex    8.759139409268460e-03   -1.327462822541324e-02   -1.345541816787869e-02
  endloop
endfacet
facet normal    9.054501613696406e-02   -9.624821347538582e-01   -2.557923773930976e-01
  outer loop
    vertex    1.422862695907317e-02   -1.483973904281619e-02   -1.334887254162321e-02
    vertex    1.803272633908074e-02   -1.554510411080664e-02   -9.348192276640218e-03
    vertex    1.284030589424875e-02   -1.606151221662533e-02   -9.243084441139580e-03
  endloop
endfacet
facet normal    6.295360412941799e-02   -9.629249725965421e-01    2.623210644936186e-01
  outer loop
    vertex    8.264641859852616e-03   -1.860839997631462e-02   -3.088242716154305e-03
    vertex    1.330911563792433e-02   -1.685787308505027e-02    2.126962765628728e-03
    vertex    4.148267411921499e-03   -1.824939935018434e-02   -7.825518762299360e-04
  endloop
endfacet
facet normal   -1.514859822614139e-01   -7.005890256233176e-01    6.972998023479320e-01
  outer loop
    vertex    6.818343924780981e-03   -1.613804271531429e-02    2.361617547386463e-03
    vertex    1.165101388499038e-02   -1.531059336906502e-02    4.242850960463546e-03
    vertex   -4.409485914627090e-04   -1.349211159709219e-02    3.442973434906558e-03
  endloop
endfacet
facet normal   -6.416310215614157e-01    5.780334071189562e-01   -5.041696266382032e-01
  outer loop
    vertex    9.618043602796644e-03   -3.834226506221580e-03   -2.066580135529605e-02
    vertex    8.922142060753237e-03   -5.068370903037198e-03   -2.119511660782341e-02
    vertex    4.108991817377787e-03   -4.579685475370658e-03   -1.450938459967942e-02
  endloop
endfacet
facet normal    7.881250448928501e-02   -9.530427376932480e-01    2.924006314396146e-01
  outer loop
    vertex   -3.183665399107919e-03   -1.955658318313464e-02   -3.066931591657663e-03
    vertex    4.148267411921499e-03   -1.824939935018434e-02   -7.825518762299360e-04
    vertex   -1.077266890317493e-03   -1.863616456398122e-02   -6.346942357051121e-04
  endloop
endfacet
facet normal   -8.023192892146053e-02   -7.946445553246491e-01    6.017498386160419e-01
  outer loop
    vertex    4.148267411921499e-03   -1.824939935018434e-02   -7.825518762299360e-04
    vertex    6.818343924780981e-03   -1.613804271531429e-02    2.361617547386463e-03
    vertex    2.720775556751556e-04   -1.619191227387499e-02    1.417659289347796e-03
  endloop
endfacet
facet normal   -1.076235517221733e-01   -6.146345813226878e-01    7.814355396045084e-01
  outer loop
    vertex    2.720775556751556e-04   -1.619191227387499e-02    1.417659289347796e-03
    vertex    6.818343924780981e-03   -1.613804271531429e-02    2.361617547386463e-03
    vertex   -4.409485914627090e-04   -1.349211159709219e-02    3.442973434906558e-03
  endloop
endfacet
facet normal    1.715153349798433e-01    9.145173481251615e-01    3.663884684933117e-01
  outer loop
    vertex    8.634101492862857e-04   -7.676208135262824e-03   -1.826390567431847e-03
    vertex    4.134499274512706e-03   -5.506698323793275e-03   -8.772832733160768e-03
    vertex   -4.014153025030112e-03   -5.775543668084564e-03   -4.287204222891691e-03
  endloop
endfacet
facet normal   -5.429272735305855e-01    1.421883317785530e-02   -8.396593359450635e-01
  outer loop
    vertex   -4.224813940876163e-03   -7.860208598858120e-03   -9.946215767435471e-03
    vertex    2.754307849996048e-03   -7.970491157845799e-03   -1.446081292915015e-02
    vertex   -2.742669742073840e-03   -1.064079219306348e-02   -1.095166300890251e-02
  endloop
endfacet
facet normal   -4.126817429392728e-02   -3.385644437811317e-01    9.400377945580800e-01
  outer loop
    vertex   -7.480361171004641e-03   -1.443769175740314e-02    2.793378780499473e-03
    vertex   -4.409485914627090e-04   -1.349211159709219e-02    3.442973434906558e-03
    vertex   -6.797991188984736e-03   -1.079607346338509e-02    4.134902113740776e-03
  endloop
endfacet
facet normal   -3.712358573889387e-01    5.222476737128878e-02   -9.270687740732694e-01
  outer loop
    vertex   -4.224813940876163e-03   -7.860208598858120e-03   -9.946215767435471e-03
    vertex   -7.050389270408079e-03   -1.494540503595578e-02   -9.213872964662086e-03
    vertex   -9.606453809974248e-03   -1.082669255464750e-02   -7.958300946009602e-03
  endloop
endfacet
facet normal    6.445234188713120e-01    7.639233677504725e-01   -3.179073341732880e-02
  outer loop
    vertex    3.512765992286615e-02   -7.222775594173839e-03   -3.889853420995494e-02
    vertex    3.398894965801723e-02   -6.116609350333533e-03   -3.540377969065427e-02
    vertex    3.674737532899864e-02   -8.434067198417234e-03   -3.516755550114328e-02
  endloop
endfacet
facet normal   -4.695305183252672e-01    3.335156703061346e-01   -8.175013088805765e-01
  outer loop
    vertex    1.990943975734636e-02   -4.153584922626823e-03   -3.910753533928729e-02
    vertex    2.248340670743119e-02   -2.258705598258104e-03   -3.981283584700011e-02
    vertex    2.442896081274077e-02   -5.153480744996815e-03   -4.211124183184049e-02
  endloop
endfacet
facet normal   -1.166745874127395e-01   -9.392436506467485e-01   -3.228132670319416e-01
  outer loop
    vertex    2.104038961754255e-02   -1.336907271322629e-02   -2.093317712248271e-02
    vertex    1.990670578911211e-02   -1.080031563757070e-02   -2.799737464259009e-02
    vertex    2.438754810804929e-02   -9.320139573489188e-03   -3.392354495287694e-02
  endloop
endfacet
facet normal   -1.636543438467337e-01   -9.140436573922464e-01   -3.711353501367135e-01
  outer loop
    vertex    2.438754810804929e-02   -9.320139573489188e-03   -3.392354495287694e-02
    vertex    2.152204617965463e-02   -7.201615014663143e-03   -3.787755283059894e-02
    vertex    2.562637725593839e-02   -6.908298704880313e-03   -4.040977058199201e-02
  endloop
endfacet
facet normal    1.653333334569496e-01   -9.661829788848704e-01   -1.978770834664062e-01
  outer loop
    vertex    2.104038961754255e-02   -1.336907271322629e-02   -2.093317712248271e-02
    vertex    2.621923851744085e-02   -1.090650596530227e-02   -2.863014585398608e-02
    vertex    2.693447859469391e-02   -1.332629613748113e-02   -1.621732340886777e-02
  endloop
endfacet
endsolid Main.HumanModel.BodyModel.Right.ShoulderArm.Seg.Acromion.DrwSurf
