solid CATIA STL
  facet normal -1.103516e-002  9.500423e-001  3.119262e-001
    outer loop
      vertex -7.951263e+001  1.399280e+001 -7.116699e+000
      vertex -7.826573e+001  1.460682e+001 -8.942714e+000
      vertex -7.951263e+001  1.474247e+001 -9.399978e+000
    endloop
  endfacet
  facet normal -3.910310e-002  9.548855e-001  2.943886e-001
    outer loop
      vertex -7.951263e+001  1.399280e+001 -7.116699e+000
      vertex -7.773295e+001  1.406568e+001 -7.116699e+000
      vertex -7.826573e+001  1.460682e+001 -8.942714e+000
    endloop
  endfacet
  facet normal -7.507727e-002  9.498987e-001  3.034071e-001
    outer loop
      vertex -7.773295e+001  1.406568e+001 -7.116699e+000
      vertex -7.702454e+001  1.467167e+001 -8.838618e+000
      vertex -7.826573e+001  1.460682e+001 -8.942714e+000
    endloop
  endfacet
  facet normal -1.270530e-001  9.480343e-001  2.916995e-001
    outer loop
      vertex -7.596519e+001  1.428382e+001 -7.116699e+000
      vertex -7.580994e+001  1.476934e+001 -8.627009e+000
      vertex -7.702454e+001  1.467167e+001 -8.838618e+000
    endloop
  endfacet
  facet normal -1.173437e-001  9.509053e-001  2.863728e-001
    outer loop
      vertex -7.596519e+001  1.428382e+001 -7.116699e+000
      vertex -7.702454e+001  1.467167e+001 -8.838618e+000
      vertex -7.773295e+001  1.406568e+001 -7.116699e+000
    endloop
  endfacet
  facet normal -2.341536e-001  9.312562e-001  2.791670e-001
    outer loop
      vertex -7.422120e+001  1.464577e+001 -7.116699e+000
      vertex -7.362775e+001  1.489673e+001 -7.456080e+000
      vertex -7.464134e+001  1.488957e+001 -8.282356e+000
    endloop
  endfacet
  facet normal -1.957841e-001  9.433534e-001  2.678674e-001
    outer loop
      vertex -7.422120e+001  1.464577e+001 -7.116699e+000
      vertex -7.464134e+001  1.488957e+001 -8.282356e+000
      vertex -7.596519e+001  1.428382e+001 -7.116699e+000
    endloop
  endfacet
  facet normal -1.806741e-001  9.416110e-001  2.841227e-001
    outer loop
      vertex -7.596519e+001  1.428382e+001 -7.116699e+000
      vertex -7.464134e+001  1.488957e+001 -8.282356e+000
      vertex -7.580994e+001  1.476934e+001 -8.627009e+000
    endloop
  endfacet
  facet normal -2.412398e-001  9.267782e-001  2.878985e-001
    outer loop
      vertex -7.362775e+001  1.489673e+001 -7.456080e+000
      vertex -7.349192e+001  1.506895e+001 -7.896678e+000
      vertex -7.464134e+001  1.488957e+001 -8.282356e+000
    endloop
  endfacet
  facet normal -3.022759e-001  9.092799e-001  2.860757e-001
    outer loop
      vertex -7.251263e+001  1.514911e+001 -7.116699e+000
      vertex -7.330731e+001  1.525343e+001 -8.287965e+000
      vertex -7.349192e+001  1.506895e+001 -7.896678e+000
    endloop
  endfacet
  facet normal -2.898846e-001  9.183071e-001  2.695903e-001
    outer loop
      vertex -7.251263e+001  1.514911e+001 -7.116699e+000
      vertex -7.349192e+001  1.506895e+001 -7.896678e+000
      vertex -7.362775e+001  1.489673e+001 -7.456080e+000
    endloop
  endfacet
  facet normal -2.762639e-001  9.377787e-001  2.103556e-001
    outer loop
      vertex -7.251263e+001  1.514911e+001 -7.116699e+000
      vertex -7.362775e+001  1.489673e+001 -7.456080e+000
      vertex -7.422120e+001  1.464577e+001 -7.116699e+000
    endloop
  endfacet
  facet normal -2.485448e-001  9.160939e-001  3.146386e-001
    outer loop
      vertex -7.349192e+001  1.506895e+001 -7.896678e+000
      vertex -7.330731e+001  1.525343e+001 -8.287965e+000
      vertex -7.464134e+001  1.488957e+001 -8.282356e+000
    endloop
  endfacet
  facet normal -2.477373e-001  9.132679e-001  3.233696e-001
    outer loop
      vertex -7.464134e+001  1.488957e+001 -8.282356e+000
      vertex -7.330731e+001  1.525343e+001 -8.287965e+000
      vertex -7.429684e+001  1.534364e+001 -9.300830e+000
    endloop
  endfacet
  facet normal -1.957650e-001  9.185892e-001  3.433220e-001
    outer loop
      vertex -7.464134e+001  1.488957e+001 -8.282356e+000
      vertex -7.429684e+001  1.534364e+001 -9.300830e+000
      vertex -7.580994e+001  1.476934e+001 -8.627009e+000
    endloop
  endfacet
  facet normal -1.918298e-001  9.166909e-001  3.505410e-001
    outer loop
      vertex -7.580994e+001  1.476934e+001 -8.627009e+000
      vertex -7.429684e+001  1.534364e+001 -9.300830e+000
      vertex -7.544963e+001  1.541689e+001 -1.012323e+001
    endloop
  endfacet
  facet normal -1.376736e-001  9.206539e-001  3.652977e-001
    outer loop
      vertex -7.580994e+001  1.476934e+001 -8.627009e+000
      vertex -7.544963e+001  1.541689e+001 -1.012323e+001
      vertex -7.702454e+001  1.467167e+001 -8.838618e+000
    endloop
  endfacet
  facet normal -1.353793e-001  9.200204e-001  3.677430e-001
    outer loop
      vertex -7.702454e+001  1.467167e+001 -8.838618e+000
      vertex -7.544963e+001  1.541689e+001 -1.012323e+001
      vertex -7.673017e+001  1.547091e+001 -1.072981e+001
    endloop
  endfacet
  facet normal -7.986052e-002  9.225742e-001  3.774641e-001
    outer loop
      vertex -7.702454e+001  1.467167e+001 -8.838618e+000
      vertex -7.673017e+001  1.547091e+001 -1.072981e+001
      vertex -7.826573e+001  1.460682e+001 -8.942714e+000
    endloop
  endfacet
  facet normal -8.019514e-002  9.226481e-001  3.772123e-001
    outer loop
      vertex -7.826573e+001  1.460682e+001 -8.942714e+000
      vertex -7.673017e+001  1.547091e+001 -1.072981e+001
      vertex -7.809899e+001  1.550405e+001 -1.110187e+001
    endloop
  endfacet
  facet normal -3.916941e-002  9.238026e-001  3.808603e-001
    outer loop
      vertex -7.826573e+001  1.460682e+001 -8.942714e+000
      vertex -7.809899e+001  1.550405e+001 -1.110187e+001
      vertex -7.951263e+001  1.474247e+001 -9.399978e+000
    endloop
  endfacet
  facet normal -2.729933e-002  9.206941e-001  3.893288e-001
    outer loop
      vertex -7.951263e+001  1.474247e+001 -9.399978e+000
      vertex -7.809899e+001  1.550405e+001 -1.110187e+001
      vertex -7.951263e+001  1.551524e+001 -1.122744e+001
    endloop
  endfacet
  facet normal  3.910311e-002  9.548855e-001  2.943884e-001
    outer loop
      vertex -7.951263e+001  1.399280e+001 -7.116699e+000
      vertex -8.075953e+001  1.460682e+001 -8.942714e+000
      vertex -8.129230e+001  1.406568e+001 -7.116699e+000
    endloop
  endfacet
  facet normal  1.103510e-002  9.500422e-001  3.119262e-001
    outer loop
      vertex -7.951263e+001  1.399280e+001 -7.116699e+000
      vertex -7.951263e+001  1.474247e+001 -9.399978e+000
      vertex -8.075953e+001  1.460682e+001 -8.942714e+000
    endloop
  endfacet
  facet normal  2.341543e-001  9.312563e-001  2.791657e-001
    outer loop
      vertex -8.480405e+001  1.464577e+001 -7.116699e+000
      vertex -8.438392e+001  1.488957e+001 -8.282356e+000
      vertex -8.539750e+001  1.489673e+001 -7.456080e+000
    endloop
  endfacet
  facet normal  1.806739e-001  9.416113e-001  2.841219e-001
    outer loop
      vertex -8.306006e+001  1.428382e+001 -7.116699e+000
      vertex -8.321532e+001  1.476934e+001 -8.627009e+000
      vertex -8.438392e+001  1.488957e+001 -8.282356e+000
    endloop
  endfacet
  facet normal  1.957842e-001  9.433538e-001  2.678663e-001
    outer loop
      vertex -8.306006e+001  1.428382e+001 -7.116699e+000
      vertex -8.438392e+001  1.488957e+001 -8.282356e+000
      vertex -8.480405e+001  1.464577e+001 -7.116699e+000
    endloop
  endfacet
  facet normal  7.507771e-002  9.498987e-001  3.034069e-001
    outer loop
      vertex -8.129230e+001  1.406568e+001 -7.116699e+000
      vertex -8.075953e+001  1.460682e+001 -8.942714e+000
      vertex -8.200071e+001  1.467167e+001 -8.838618e+000
    endloop
  endfacet
  facet normal  1.173437e-001  9.509053e-001  2.863728e-001
    outer loop
      vertex -8.129230e+001  1.406568e+001 -7.116699e+000
      vertex -8.200071e+001  1.467167e+001 -8.838618e+000
      vertex -8.306006e+001  1.428382e+001 -7.116699e+000
    endloop
  endfacet
  facet normal  2.412389e-001  9.267794e-001  2.878951e-001
    outer loop
      vertex -8.539750e+001  1.489673e+001 -7.456080e+000
      vertex -8.438392e+001  1.488957e+001 -8.282356e+000
      vertex -8.553334e+001  1.506895e+001 -7.896678e+000
    endloop
  endfacet
  facet normal  1.270521e-001  9.480345e-001  2.916990e-001
    outer loop
      vertex -8.306006e+001  1.428382e+001 -7.116699e+000
      vertex -8.200071e+001  1.467167e+001 -8.838618e+000
      vertex -8.321532e+001  1.476934e+001 -8.627009e+000
    endloop
  endfacet
  facet normal  2.762639e-001  9.377787e-001  2.103556e-001
    outer loop
      vertex -8.651263e+001  1.514911e+001 -7.116699e+000
      vertex -8.480405e+001  1.464577e+001 -7.116699e+000
      vertex -8.539750e+001  1.489673e+001 -7.456080e+000
    endloop
  endfacet
  facet normal  2.898837e-001  9.183086e-001  2.695862e-001
    outer loop
      vertex -8.651263e+001  1.514911e+001 -7.116699e+000
      vertex -8.539750e+001  1.489673e+001 -7.456080e+000
      vertex -8.553334e+001  1.506895e+001 -7.896678e+000
    endloop
  endfacet
  facet normal  3.022803e-001  9.092776e-001  2.860785e-001
    outer loop
      vertex -8.651263e+001  1.514911e+001 -7.116699e+000
      vertex -8.553334e+001  1.506895e+001 -7.896678e+000
      vertex -8.571794e+001  1.525343e+001 -8.287965e+000
    endloop
  endfacet
  facet normal  2.419607e-001  9.166858e-001  3.180287e-001
    outer loop
      vertex -8.571794e+001  1.525343e+001 -8.287965e+000
      vertex -8.553334e+001  1.506895e+001 -7.896678e+000
      vertex -8.472842e+001  1.534364e+001 -9.300830e+000
    endloop
  endfacet
  facet normal  2.505936e-001  9.128896e-001  3.222348e-001
    outer loop
      vertex -8.472842e+001  1.534364e+001 -9.300830e+000
      vertex -8.553334e+001  1.506895e+001 -7.896678e+000
      vertex -8.438392e+001  1.488957e+001 -8.282356e+000
    endloop
  endfacet
  facet normal  1.884544e-001  9.191040e-001  3.460244e-001
    outer loop
      vertex -8.472842e+001  1.534364e+001 -9.300830e+000
      vertex -8.438392e+001  1.488957e+001 -8.282356e+000
      vertex -8.357563e+001  1.541689e+001 -1.012323e+001
    endloop
  endfacet
  facet normal  1.971904e-001  9.161374e-001  3.490104e-001
    outer loop
      vertex -8.357563e+001  1.541689e+001 -1.012323e+001
      vertex -8.438392e+001  1.488957e+001 -8.282356e+000
      vertex -8.321532e+001  1.476934e+001 -8.627009e+000
    endloop
  endfacet
  facet normal  1.345700e-001  9.207922e-001  3.661049e-001
    outer loop
      vertex -8.357563e+001  1.541689e+001 -1.012323e+001
      vertex -8.321532e+001  1.476934e+001 -8.627009e+000
      vertex -8.229508e+001  1.547091e+001 -1.072981e+001
    endloop
  endfacet
  facet normal  1.379490e-001  9.198304e-001  3.672628e-001
    outer loop
      vertex -8.229508e+001  1.547091e+001 -1.072981e+001
      vertex -8.321532e+001  1.476934e+001 -8.627009e+000
      vertex -8.200071e+001  1.467167e+001 -8.838618e+000
    endloop
  endfacet
  facet normal  8.024867e-002  9.225665e-001  3.774004e-001
    outer loop
      vertex -8.229508e+001  1.547091e+001 -1.072981e+001
      vertex -8.200071e+001  1.467167e+001 -8.838618e+000
      vertex -8.092627e+001  1.550405e+001 -1.110187e+001
    endloop
  endfacet
  facet normal  7.984747e-002  9.226645e-001  3.772460e-001
    outer loop
      vertex -8.092627e+001  1.550405e+001 -1.110187e+001
      vertex -8.200071e+001  1.467167e+001 -8.838618e+000
      vertex -8.075953e+001  1.460682e+001 -8.942714e+000
    endloop
  endfacet
  facet normal  2.660970e-002  9.238425e-001  3.818468e-001
    outer loop
      vertex -8.092627e+001  1.550405e+001 -1.110187e+001
      vertex -8.075953e+001  1.460682e+001 -8.942714e+000
      vertex -7.951263e+001  1.551524e+001 -1.122744e+001
    endloop
  endfacet
  facet normal  4.259014e-002  9.202017e-001  3.891205e-001
    outer loop
      vertex -7.951263e+001  1.551524e+001 -1.122744e+001
      vertex -8.075953e+001  1.460682e+001 -8.942714e+000
      vertex -7.951263e+001  1.474247e+001 -9.399978e+000
    endloop
  endfacet
  facet normal -2.935639e-001  9.334062e-001  2.063328e-001
    outer loop
      vertex -7.369218e+001  1.435879e+001 -5.357599e+000
      vertex -7.175841e+001  1.492795e+001 -5.181005e+000
      vertex -7.199397e+001  1.502712e+001 -5.964783e+000
    endloop
  endfacet
  facet normal -3.234176e-001  9.287831e-001  1.810050e-001
    outer loop
      vertex -7.261588e+001  1.454842e+001 -4.765671e+000
      vertex -7.144914e+001  1.471939e+001 -3.558268e+000
      vertex -7.175841e+001  1.492795e+001 -5.181005e+000
    endloop
  endfacet
  facet normal -2.941774e-001  9.255384e-001  2.384079e-001
    outer loop
      vertex -7.261588e+001  1.454842e+001 -4.765671e+000
      vertex -7.175841e+001  1.492795e+001 -5.181005e+000
      vertex -7.369218e+001  1.435879e+001 -5.357599e+000
    endloop
  endfacet
  facet normal -2.749599e-001  9.407202e-001  1.986014e-001
    outer loop
      vertex -7.261588e+001  1.454842e+001 -4.765671e+000
      vertex -7.369218e+001  1.435879e+001 -5.357599e+000
      vertex -7.358291e+001  1.426376e+001 -4.756152e+000
    endloop
  endfacet
  facet normal -3.565992e-002  9.711443e-001  2.358116e-001
    outer loop
      vertex -7.951263e+001  1.399280e+001 -7.116699e+000
      vertex -7.951263e+001  1.357078e+001 -5.378691e+000
      vertex -7.763595e+001  1.385122e+001 -6.249831e+000
    endloop
  endfacet
  facet normal -4.588848e-002  9.754962e-001  2.151774e-001
    outer loop
      vertex -7.763595e+001  1.385122e+001 -6.249831e+000
      vertex -7.951263e+001  1.357078e+001 -5.378691e+000
      vertex -7.756763e+001  1.366039e+001 -5.370146e+000
    endloop
  endfacet
  facet normal -1.281085e-001  9.671096e-001  2.197437e-001
    outer loop
      vertex -7.763595e+001  1.385122e+001 -6.249831e+000
      vertex -7.756763e+001  1.366039e+001 -5.370146e+000
      vertex -7.576310e+001  1.409777e+001 -6.243046e+000
    endloop
  endfacet
  facet normal -1.327340e-001  9.684627e-001  2.108594e-001
    outer loop
      vertex -7.576310e+001  1.409777e+001 -6.243046e+000
      vertex -7.756763e+001  1.366039e+001 -5.370146e+000
      vertex -7.561971e+001  1.392470e+001 -5.357904e+000
    endloop
  endfacet
  facet normal -2.088359e-001  9.528524e-001  2.201359e-001
    outer loop
      vertex -7.576310e+001  1.409777e+001 -6.243046e+000
      vertex -7.561971e+001  1.392470e+001 -5.357904e+000
      vertex -7.391232e+001  1.450336e+001 -6.242877e+000
    endloop
  endfacet
  facet normal -2.148749e-001  9.539695e-001  2.092152e-001
    outer loop
      vertex -7.391232e+001  1.450336e+001 -6.242877e+000
      vertex -7.561971e+001  1.392470e+001 -5.357904e+000
      vertex -7.369218e+001  1.435879e+001 -5.357599e+000
    endloop
  endfacet
  facet normal -2.867366e-001  9.315907e-001  2.234297e-001
    outer loop
      vertex -7.391232e+001  1.450336e+001 -6.242877e+000
      vertex -7.369218e+001  1.435879e+001 -5.357599e+000
      vertex -7.199397e+001  1.502712e+001 -5.964783e+000
    endloop
  endfacet
  facet normal -2.870531e-001  9.304380e-001  2.277841e-001
    outer loop
      vertex -7.199397e+001  1.502712e+001 -5.964783e+000
      vertex -7.251263e+001  1.514911e+001 -7.116699e+000
      vertex -7.391232e+001  1.450336e+001 -6.242877e+000
    endloop
  endfacet
  facet normal -2.737439e-001  9.292244e-001  2.482061e-001
    outer loop
      vertex -7.391232e+001  1.450336e+001 -6.242877e+000
      vertex -7.251263e+001  1.514911e+001 -7.116699e+000
      vertex -7.422120e+001  1.464577e+001 -7.116699e+000
    endloop
  endfacet
  facet normal -2.084168e-001  9.509366e-001  2.286525e-001
    outer loop
      vertex -7.391232e+001  1.450336e+001 -6.242877e+000
      vertex -7.422120e+001  1.464577e+001 -7.116699e+000
      vertex -7.576310e+001  1.409777e+001 -6.243046e+000
    endloop
  endfacet
  facet normal -1.968841e-001  9.486535e-001  2.475743e-001
    outer loop
      vertex -7.576310e+001  1.409777e+001 -6.243046e+000
      vertex -7.422120e+001  1.464577e+001 -7.116699e+000
      vertex -7.596519e+001  1.428382e+001 -7.116699e+000
    endloop
  endfacet
  facet normal -1.277045e-001  9.636281e-001  2.347606e-001
    outer loop
      vertex -7.576310e+001  1.409777e+001 -6.243046e+000
      vertex -7.596519e+001  1.428382e+001 -7.116699e+000
      vertex -7.763595e+001  1.385122e+001 -6.249831e+000
    endloop
  endfacet
  facet normal -1.185542e-001  9.607147e-001  2.509427e-001
    outer loop
      vertex -7.763595e+001  1.385122e+001 -6.249831e+000
      vertex -7.596519e+001  1.428382e+001 -7.116699e+000
      vertex -7.773295e+001  1.406568e+001 -7.116699e+000
    endloop
  endfacet
  facet normal -3.967806e-002  9.689258e-001  2.441481e-001
    outer loop
      vertex -7.763595e+001  1.385122e+001 -6.249831e+000
      vertex -7.773295e+001  1.406568e+001 -7.116699e+000
      vertex -7.951263e+001  1.399280e+001 -7.116699e+000
    endloop
  endfacet
  facet normal -3.949504e-002  9.849144e-001  1.684752e-001
    outer loop
      vertex -7.951263e+001  1.357078e+001 -5.378691e+000
      vertex -7.951263e+001  1.325939e+001 -3.558268e+000
      vertex -7.753374e+001  1.354626e+001 -4.771417e+000
    endloop
  endfacet
  facet normal -4.645966e-002  9.864298e-001  1.574729e-001
    outer loop
      vertex -7.753374e+001  1.354626e+001 -4.771417e+000
      vertex -7.951263e+001  1.325939e+001 -3.558268e+000
      vertex -7.748180e+001  1.335310e+001 -3.546160e+000
    endloop
  endfacet
  facet normal -1.348670e-001  9.778810e-001  1.598736e-001
    outer loop
      vertex -7.753374e+001  1.354626e+001 -4.771417e+000
      vertex -7.748180e+001  1.335310e+001 -3.546160e+000
      vertex -7.554857e+001  1.381761e+001 -4.756523e+000
    endloop
  endfacet
  facet normal -1.342824e-001  9.778126e-001  1.607810e-001
    outer loop
      vertex -7.554857e+001  1.381761e+001 -4.756523e+000
      vertex -7.748180e+001  1.335310e+001 -3.546160e+000
      vertex -7.544149e+001  1.363045e+001 -3.528814e+000
    endloop
  endfacet
  facet normal -2.183125e-001  9.617161e-001  1.656560e-001
    outer loop
      vertex -7.554857e+001  1.381761e+001 -4.756523e+000
      vertex -7.544149e+001  1.363045e+001 -3.528814e+000
      vertex -7.358291e+001  1.426376e+001 -4.756152e+000
    endloop
  endfacet
  facet normal -2.180160e-001  9.617066e-001  1.661000e-001
    outer loop
      vertex -7.358291e+001  1.426376e+001 -4.756152e+000
      vertex -7.544149e+001  1.363045e+001 -3.528814e+000
      vertex -7.342009e+001  1.408862e+001 -3.528382e+000
    endloop
  endfacet
  facet normal -2.766429e-001  9.455333e-001  1.715676e-001
    outer loop
      vertex -7.358291e+001  1.426376e+001 -4.756152e+000
      vertex -7.342009e+001  1.408862e+001 -3.528382e+000
      vertex -7.261588e+001  1.454842e+001 -4.765671e+000
    endloop
  endfacet
  facet normal -2.768180e-001  9.455047e-001  1.714432e-001
    outer loop
      vertex -7.261588e+001  1.454842e+001 -4.765671e+000
      vertex -7.342009e+001  1.408862e+001 -3.528382e+000
      vertex -7.242583e+001  1.438172e+001 -3.539468e+000
    endloop
  endfacet
  facet normal -3.186267e-001  9.313964e-001  1.760053e-001
    outer loop
      vertex -7.261588e+001  1.454842e+001 -4.765671e+000
      vertex -7.242583e+001  1.438172e+001 -3.539468e+000
      vertex -7.144914e+001  1.471939e+001 -3.558268e+000
    endloop
  endfacet
  facet normal -4.440845e-002  9.984455e-001  3.368139e-002
    outer loop
      vertex -7.951263e+001  1.307967e+001 -1.785124e+000
      vertex -7.951263e+001  1.301945e+001  1.619291e-004
      vertex -7.740895e+001  1.317292e+001 -1.775724e+000
    endloop
  endfacet
  facet normal -4.256479e-002  9.984497e-001  3.586571e-002
    outer loop
      vertex -7.740895e+001  1.317292e+001 -1.775724e+000
      vertex -7.951263e+001  1.301945e+001  1.619291e-004
      vertex -7.729976e+001  1.311378e+001  1.619291e-004
    endloop
  endfacet
  facet normal -1.309296e-001  9.905420e-001  4.103557e-002
    outer loop
      vertex -7.740895e+001  1.317292e+001 -1.775724e+000
      vertex -7.729976e+001  1.311378e+001  1.619291e-004
      vertex -7.530137e+001  1.345094e+001 -1.762258e+000
    endloop
  endfacet
  facet normal -1.273388e-001  9.908305e-001  4.516236e-002
    outer loop
      vertex -7.530137e+001  1.345094e+001 -1.762258e+000
      vertex -7.729976e+001  1.311378e+001  1.619291e-004
      vertex -7.510294e+001  1.339611e+001  1.619291e-004
    endloop
  endfacet
  facet normal -2.160737e-001  9.748461e-001  5.465545e-002
    outer loop
      vertex -7.530137e+001  1.345094e+001 -1.762258e+000
      vertex -7.510294e+001  1.339611e+001  1.619291e-004
      vertex -7.321590e+001  1.391317e+001 -1.761922e+000
    endloop
  endfacet
  facet normal -2.110415e-001  9.756172e-001  6.027082e-002
    outer loop
      vertex -7.321590e+001  1.391317e+001 -1.761922e+000
      vertex -7.510294e+001  1.339611e+001  1.619291e-004
      vertex -7.293813e+001  1.386439e+001  1.619291e-004
    endloop
  endfacet
  facet normal -2.773979e-001  9.581834e-001  7.024827e-002
    outer loop
      vertex -7.321590e+001  1.391317e+001 -1.761922e+000
      vertex -7.293813e+001  1.386439e+001  1.619291e-004
      vertex -7.218993e+001  1.421082e+001 -1.770529e+000
    endloop
  endfacet
  facet normal -2.932720e-001  9.539697e-001  6.271631e-002
    outer loop
      vertex -7.218993e+001  1.421082e+001 -1.770529e+000
      vertex -7.293813e+001  1.386439e+001  1.619291e-004
      vertex -7.082104e+001  1.451524e+001  1.619291e-004
    endloop
  endfacet
  facet normal -3.201276e-001  9.435290e-001  8.527292e-002
    outer loop
      vertex -7.218993e+001  1.421082e+001 -1.770529e+000
      vertex -7.082104e+001  1.451524e+001  1.619291e-004
      vertex -7.118094e+001  1.455447e+001 -1.785124e+000
    endloop
  endfacet
  facet normal -2.173112e-001  9.572839e-001  1.907446e-001
    outer loop
      vertex -7.358291e+001  1.426376e+001 -4.756152e+000
      vertex -7.369218e+001  1.435879e+001 -5.357599e+000
      vertex -7.554857e+001  1.381761e+001 -4.756523e+000
    endloop
  endfacet
  facet normal -2.154804e-001  9.566678e-001  1.958442e-001
    outer loop
      vertex -7.554857e+001  1.381761e+001 -4.756523e+000
      vertex -7.369218e+001  1.435879e+001 -5.357599e+000
      vertex -7.561971e+001  1.392470e+001 -5.357904e+000
    endloop
  endfacet
  facet normal -1.343805e-001  9.727177e-001  1.891091e-001
    outer loop
      vertex -7.554857e+001  1.381761e+001 -4.756523e+000
      vertex -7.561971e+001  1.392470e+001 -5.357904e+000
      vertex -7.753374e+001  1.354626e+001 -4.771417e+000
    endloop
  endfacet
  facet normal -1.331219e-001  9.721553e-001  1.928538e-001
    outer loop
      vertex -7.753374e+001  1.354626e+001 -4.771417e+000
      vertex -7.561971e+001  1.392470e+001 -5.357904e+000
      vertex -7.756763e+001  1.366039e+001 -5.370146e+000
    endloop
  endfacet
  facet normal -4.601978e-002  9.807880e-001  1.895703e-001
    outer loop
      vertex -7.753374e+001  1.354626e+001 -4.771417e+000
      vertex -7.756763e+001  1.366039e+001 -5.370146e+000
      vertex -7.951263e+001  1.357078e+001 -5.378691e+000
    endloop
  endfacet
  facet normal -3.176862e-001  9.384873e-001  1.353399e-001
    outer loop
      vertex -7.118094e+001  1.455447e+001 -1.785124e+000
      vertex -7.144914e+001  1.471939e+001 -3.558268e+000
      vertex -7.218993e+001  1.421082e+001 -1.770529e+000
    endloop
  endfacet
  facet normal -3.215375e-001  9.374462e-001  1.334478e-001
    outer loop
      vertex -7.218993e+001  1.421082e+001 -1.770529e+000
      vertex -7.144914e+001  1.471939e+001 -3.558268e+000
      vertex -7.242583e+001  1.438172e+001 -3.539468e+000
    endloop
  endfacet
  facet normal -2.753142e-001  9.526930e-001  1.287569e-001
    outer loop
      vertex -7.218993e+001  1.421082e+001 -1.770529e+000
      vertex -7.242583e+001  1.438172e+001 -3.539468e+000
      vertex -7.321590e+001  1.391317e+001 -1.761922e+000
    endloop
  endfacet
  facet normal -2.791799e-001  9.518286e-001  1.268108e-001
    outer loop
      vertex -7.321590e+001  1.391317e+001 -1.761922e+000
      vertex -7.242583e+001  1.438172e+001 -3.539468e+000
      vertex -7.342009e+001  1.408862e+001 -3.528382e+000
    endloop
  endfacet
  facet normal -2.148151e-001  9.691193e-001  1.210879e-001
    outer loop
      vertex -7.321590e+001  1.391317e+001 -1.761922e+000
      vertex -7.342009e+001  1.408862e+001 -3.528382e+000
      vertex -7.530137e+001  1.345094e+001 -1.762258e+000
    endloop
  endfacet
  facet normal -2.195881e-001  9.686899e-001  1.158486e-001
    outer loop
      vertex -7.530137e+001  1.345094e+001 -1.762258e+000
      vertex -7.342009e+001  1.408862e+001 -3.528382e+000
      vertex -7.544149e+001  1.363045e+001 -3.528814e+000
    endloop
  endfacet
  facet normal -1.306753e-001  9.852505e-001  1.104789e-001
    outer loop
      vertex -7.530137e+001  1.345094e+001 -1.762258e+000
      vertex -7.544149e+001  1.363045e+001 -3.528814e+000
      vertex -7.740895e+001  1.317292e+001 -1.775724e+000
    endloop
  endfacet
  facet normal -1.348198e-001  9.852039e-001  1.058154e-001
    outer loop
      vertex -7.740895e+001  1.317292e+001 -1.775724e+000
      vertex -7.544149e+001  1.363045e+001 -3.528814e+000
      vertex -7.748180e+001  1.335310e+001 -3.546160e+000
    endloop
  endfacet
  facet normal -4.450719e-002  9.936889e-001  1.029630e-001
    outer loop
      vertex -7.740895e+001  1.317292e+001 -1.775724e+000
      vertex -7.748180e+001  1.335310e+001 -3.546160e+000
      vertex -7.951263e+001  1.307967e+001 -1.785124e+000
    endloop
  endfacet
  facet normal -4.646274e-002  9.938284e-001  1.007295e-001
    outer loop
      vertex -7.951263e+001  1.307967e+001 -1.785124e+000
      vertex -7.748180e+001  1.335310e+001 -3.546160e+000
      vertex -7.951263e+001  1.325939e+001 -3.558268e+000
    endloop
  endfacet
  facet normal  3.201254e-001  9.435297e-001  8.527251e-002
    outer loop
      vertex -8.820422e+001  1.451524e+001  1.619291e-004
      vertex -8.683532e+001  1.421082e+001 -1.770529e+000
      vertex -8.784432e+001  1.455447e+001 -1.785124e+000
    endloop
  endfacet
  facet normal  2.932711e-001  9.539700e-001  6.271677e-002
    outer loop
      vertex -8.820422e+001  1.451524e+001  1.619291e-004
      vertex -8.608712e+001  1.386439e+001  1.619291e-004
      vertex -8.683532e+001  1.421082e+001 -1.770529e+000
    endloop
  endfacet
  facet normal  3.565992e-002  9.711443e-001  2.358116e-001
    outer loop
      vertex -7.951263e+001  1.357078e+001 -5.378691e+000
      vertex -7.951263e+001  1.399280e+001 -7.116699e+000
      vertex -8.138931e+001  1.385122e+001 -6.249831e+000
    endloop
  endfacet
  facet normal  3.967807e-002  9.689258e-001  2.441481e-001
    outer loop
      vertex -8.138931e+001  1.385122e+001 -6.249831e+000
      vertex -7.951263e+001  1.399280e+001 -7.116699e+000
      vertex -8.129230e+001  1.406568e+001 -7.116699e+000
    endloop
  endfacet
  facet normal  1.272136e-001  9.594355e-001  2.515952e-001
    outer loop
      vertex -8.138931e+001  1.385122e+001 -6.249831e+000
      vertex -8.129230e+001  1.406568e+001 -7.116699e+000
      vertex -8.326215e+001  1.409777e+001 -6.243046e+000
    endloop
  endfacet
  facet normal  1.190995e-001  9.651342e-001  2.330909e-001
    outer loop
      vertex -8.326215e+001  1.409777e+001 -6.243046e+000
      vertex -8.129230e+001  1.406568e+001 -7.116699e+000
      vertex -8.306006e+001  1.428382e+001 -7.116699e+000
    endloop
  endfacet
  facet normal  2.073246e-001  9.459440e-001  2.494124e-001
    outer loop
      vertex -8.326215e+001  1.409777e+001 -6.243046e+000
      vertex -8.306006e+001  1.428382e+001 -7.116699e+000
      vertex -8.511294e+001  1.450336e+001 -6.242877e+000
    endloop
  endfacet
  facet normal  1.979786e-001  9.539270e-001  2.254501e-001
    outer loop
      vertex -8.511294e+001  1.450336e+001 -6.242877e+000
      vertex -8.306006e+001  1.428382e+001 -7.116699e+000
      vertex -8.480405e+001  1.464577e+001 -7.116699e+000
    endloop
  endfacet
  facet normal  2.887494e-001  9.234877e-001  2.525754e-001
    outer loop
      vertex -8.511294e+001  1.450336e+001 -6.242877e+000
      vertex -8.480405e+001  1.464577e+001 -7.116699e+000
      vertex -8.703128e+001  1.502712e+001 -5.964783e+000
    endloop
  endfacet
  facet normal  2.754670e-001  9.350737e-001  2.230584e-001
    outer loop
      vertex -8.703128e+001  1.502712e+001 -5.964783e+000
      vertex -8.480405e+001  1.464577e+001 -7.116699e+000
      vertex -8.651263e+001  1.514911e+001 -7.116699e+000
    endloop
  endfacet
  facet normal  3.183006e-001  9.306910e-001  1.802750e-001
    outer loop
      vertex -8.757611e+001  1.471939e+001 -3.558268e+000
      vertex -8.659943e+001  1.438172e+001 -3.539468e+000
      vertex -8.726685e+001  1.492795e+001 -5.181005e+000
    endloop
  endfacet
  facet normal  3.255293e-001  9.288688e-001  1.767296e-001
    outer loop
      vertex -8.726685e+001  1.492795e+001 -5.181005e+000
      vertex -8.659943e+001  1.438172e+001 -3.539468e+000
      vertex -8.640938e+001  1.454842e+001 -4.765671e+000
    endloop
  endfacet
  facet normal  3.087782e-001  9.276223e-001  2.101737e-001
    outer loop
      vertex -8.726685e+001  1.492795e+001 -5.181005e+000
      vertex -8.640938e+001  1.454842e+001 -4.765671e+000
      vertex -8.703128e+001  1.502712e+001 -5.964783e+000
    endloop
  endfacet
  facet normal  2.868537e-001  9.316237e-001  2.231419e-001
    outer loop
      vertex -8.703128e+001  1.502712e+001 -5.964783e+000
      vertex -8.640938e+001  1.454842e+001 -4.765671e+000
      vertex -8.533308e+001  1.435879e+001 -5.357599e+000
    endloop
  endfacet
  facet normal  2.867368e-001  9.315901e-001  2.234321e-001
    outer loop
      vertex -8.703128e+001  1.502712e+001 -5.964783e+000
      vertex -8.533308e+001  1.435879e+001 -5.357599e+000
      vertex -8.511294e+001  1.450336e+001 -6.242877e+000
    endloop
  endfacet
  facet normal  3.949503e-002  9.849144e-001  1.684752e-001
    outer loop
      vertex -7.951263e+001  1.325939e+001 -3.558268e+000
      vertex -7.951263e+001  1.357078e+001 -5.378691e+000
      vertex -8.149151e+001  1.354626e+001 -4.771417e+000
    endloop
  endfacet
  facet normal  4.601978e-002  9.807880e-001  1.895703e-001
    outer loop
      vertex -8.149151e+001  1.354626e+001 -4.771417e+000
      vertex -7.951263e+001  1.357078e+001 -5.378691e+000
      vertex -8.145763e+001  1.366039e+001 -5.370146e+000
    endloop
  endfacet
  facet normal  1.343082e-001  9.719852e-001  1.928885e-001
    outer loop
      vertex -8.149151e+001  1.354626e+001 -4.771417e+000
      vertex -8.145763e+001  1.366039e+001 -5.370146e+000
      vertex -8.347669e+001  1.381761e+001 -4.756523e+000
    endloop
  endfacet
  facet normal  1.331988e-001  9.729007e-001  1.890036e-001
    outer loop
      vertex -8.347669e+001  1.381761e+001 -4.756523e+000
      vertex -8.145763e+001  1.366039e+001 -5.370146e+000
      vertex -8.340555e+001  1.392470e+001 -5.357904e+000
    endloop
  endfacet
  facet normal  1.977180e-001  9.607739e-001  1.944768e-001
    outer loop
      vertex -8.347669e+001  1.381761e+001 -4.756523e+000
      vertex -8.340555e+001  1.392470e+001 -5.357904e+000
      vertex -8.446346e+001  1.402005e+001 -4.753402e+000
    endloop
  endfacet
  facet normal  2.141162e-001  9.505935e-001  2.247802e-001
    outer loop
      vertex -8.446346e+001  1.402005e+001 -4.753402e+000
      vertex -8.340555e+001  1.392470e+001 -5.357904e+000
      vertex -8.533308e+001  1.435879e+001 -5.357599e+000
    endloop
  endfacet
  facet normal  2.575656e-001  9.523720e-001  1.632407e-001
    outer loop
      vertex -8.446346e+001  1.402005e+001 -4.753402e+000
      vertex -8.533308e+001  1.435879e+001 -5.357599e+000
      vertex -8.640938e+001  1.454842e+001 -4.765671e+000
    endloop
  endfacet
  facet normal  4.256788e-002  9.985256e-001  3.368410e-002
    outer loop
      vertex -7.951263e+001  1.301945e+001  1.619291e-004
      vertex -7.951263e+001  1.307967e+001 -1.785124e+000
      vertex -8.172550e+001  1.311378e+001  1.619291e-004
    endloop
  endfacet
  facet normal  4.441498e-002  9.983652e-001  3.597666e-002
    outer loop
      vertex -8.172550e+001  1.311378e+001  1.619291e-004
      vertex -7.951263e+001  1.307967e+001 -1.785124e+000
      vertex -8.161631e+001  1.317292e+001 -1.775724e+000
    endloop
  endfacet
  facet normal  1.273630e-001  9.910154e-001  4.083204e-002
    outer loop
      vertex -8.172550e+001  1.311378e+001  1.619291e-004
      vertex -8.161631e+001  1.317292e+001 -1.775724e+000
      vertex -8.392231e+001  1.339611e+001  1.619291e-004
    endloop
  endfacet
  facet normal  1.309324e-001  9.903443e-001  4.555126e-002
    outer loop
      vertex -8.392231e+001  1.339611e+001  1.619291e-004
      vertex -8.161631e+001  1.317292e+001 -1.775724e+000
      vertex -8.372389e+001  1.345094e+001 -1.762258e+000
    endloop
  endfacet
  facet normal  2.111159e-001  9.759611e-001  5.413104e-002
    outer loop
      vertex -8.392231e+001  1.339611e+001  1.619291e-004
      vertex -8.372389e+001  1.345094e+001 -1.762258e+000
      vertex -8.608712e+001  1.386439e+001  1.619291e-004
    endloop
  endfacet
  facet normal  1.957067e-001  9.801241e-001  3.249235e-002
    outer loop
      vertex -8.608712e+001  1.386439e+001  1.619291e-004
      vertex -8.372389e+001  1.345094e+001 -1.762258e+000
      vertex -8.477090e+001  1.365991e+001 -1.759436e+000
    endloop
  endfacet
  facet normal  2.566074e-001  9.631979e-001  8.001429e-002
    outer loop
      vertex -8.608712e+001  1.386439e+001  1.619291e-004
      vertex -8.477090e+001  1.365991e+001 -1.759436e+000
      vertex -8.683532e+001  1.421082e+001 -1.770529e+000
    endloop
  endfacet
  facet normal  2.093999e-001  9.554310e-001  2.080943e-001
    outer loop
      vertex -8.511294e+001  1.450336e+001 -6.242877e+000
      vertex -8.533308e+001  1.435879e+001 -5.357599e+000
      vertex -8.326215e+001  1.409777e+001 -6.243046e+000
    endloop
  endfacet
  facet normal  2.143175e-001  9.514904e-001  2.207576e-001
    outer loop
      vertex -8.326215e+001  1.409777e+001 -6.243046e+000
      vertex -8.533308e+001  1.435879e+001 -5.357599e+000
      vertex -8.340555e+001  1.392470e+001 -5.357904e+000
    endloop
  endfacet
  facet normal  1.283465e-001  9.691780e-001  2.102885e-001
    outer loop
      vertex -8.326215e+001  1.409777e+001 -6.243046e+000
      vertex -8.340555e+001  1.392470e+001 -5.357904e+000
      vertex -8.138931e+001  1.385122e+001 -6.249831e+000
    endloop
  endfacet
  facet normal  1.325205e-001  9.664686e-001  2.199474e-001
    outer loop
      vertex -8.138931e+001  1.385122e+001 -6.249831e+000
      vertex -8.340555e+001  1.392470e+001 -5.357904e+000
      vertex -8.145763e+001  1.366039e+001 -5.370146e+000
    endloop
  endfacet
  facet normal  4.588849e-002  9.754962e-001  2.151774e-001
    outer loop
      vertex -8.138931e+001  1.385122e+001 -6.249831e+000
      vertex -8.145763e+001  1.366039e+001 -5.370146e+000
      vertex -7.951263e+001  1.357078e+001 -5.378691e+000
    endloop
  endfacet
  facet normal  2.572666e-001  9.514098e-001  1.692140e-001
    outer loop
      vertex -8.640938e+001  1.454842e+001 -4.765671e+000
      vertex -8.659943e+001  1.438172e+001 -3.539468e+000
      vertex -8.446346e+001  1.402005e+001 -4.753402e+000
    endloop
  endfacet
  facet normal  2.572393e-001  9.514267e-001  1.691608e-001
    outer loop
      vertex -8.446346e+001  1.402005e+001 -4.753402e+000
      vertex -8.659943e+001  1.438172e+001 -3.539468e+000
      vertex -8.459846e+001  1.383817e+001 -3.525179e+000
    endloop
  endfacet
  facet normal  1.987141e-001  9.660856e-001  1.648982e-001
    outer loop
      vertex -8.446346e+001  1.402005e+001 -4.753402e+000
      vertex -8.459846e+001  1.383817e+001 -3.525179e+000
      vertex -8.347669e+001  1.381761e+001 -4.756523e+000
    endloop
  endfacet
  facet normal  1.983917e-001  9.662023e-001  1.646025e-001
    outer loop
      vertex -8.347669e+001  1.381761e+001 -4.756523e+000
      vertex -8.459846e+001  1.383817e+001 -3.525179e+000
      vertex -8.358377e+001  1.363045e+001 -3.528814e+000
    endloop
  endfacet
  facet normal  1.348526e-001  9.777281e-001  1.608179e-001
    outer loop
      vertex -8.347669e+001  1.381761e+001 -4.756523e+000
      vertex -8.358377e+001  1.363045e+001 -3.528814e+000
      vertex -8.149151e+001  1.354626e+001 -4.771417e+000
    endloop
  endfacet
  facet normal  1.342944e-001  9.779617e-001  1.598620e-001
    outer loop
      vertex -8.149151e+001  1.354626e+001 -4.771417e+000
      vertex -8.358377e+001  1.363045e+001 -3.528814e+000
      vertex -8.154346e+001  1.335310e+001 -3.546160e+000
    endloop
  endfacet
  facet normal  4.645966e-002  9.864298e-001  1.574729e-001
    outer loop
      vertex -8.149151e+001  1.354626e+001 -4.771417e+000
      vertex -8.154346e+001  1.335310e+001 -3.546160e+000
      vertex -7.951263e+001  1.325939e+001 -3.558268e+000
    endloop
  endfacet
  facet normal  4.450719e-002  9.939169e-001  1.007385e-001
    outer loop
      vertex -7.951263e+001  1.307967e+001 -1.785124e+000
      vertex -7.951263e+001  1.325939e+001 -3.558268e+000
      vertex -8.161631e+001  1.317292e+001 -1.775724e+000
    endloop
  endfacet
  facet normal  4.646557e-002  9.935918e-001  1.030339e-001
    outer loop
      vertex -8.161631e+001  1.317292e+001 -1.775724e+000
      vertex -7.951263e+001  1.325939e+001 -3.558268e+000
      vertex -8.154346e+001  1.335310e+001 -3.546160e+000
    endloop
  endfacet
  facet normal  1.307132e-001  9.857691e-001  1.057045e-001
    outer loop
      vertex -8.161631e+001  1.317292e+001 -1.775724e+000
      vertex -8.154346e+001  1.335310e+001 -3.546160e+000
      vertex -8.372389e+001  1.345094e+001 -1.762258e+000
    endloop
  endfacet
  facet normal  1.347881e-001  9.846662e-001  1.107458e-001
    outer loop
      vertex -8.372389e+001  1.345094e+001 -1.762258e+000
      vertex -8.154346e+001  1.335310e+001 -3.546160e+000
      vertex -8.358377e+001  1.363045e+001 -3.528814e+000
    endloop
  endfacet
  facet normal  1.947367e-001  9.741574e-001  1.144330e-001
    outer loop
      vertex -8.372389e+001  1.345094e+001 -1.762258e+000
      vertex -8.358377e+001  1.363045e+001 -3.528814e+000
      vertex -8.477090e+001  1.365991e+001 -1.759436e+000
    endloop
  endfacet
  facet normal  1.995720e-001  9.727886e-001  1.177000e-001
    outer loop
      vertex -8.477090e+001  1.365991e+001 -1.759436e+000
      vertex -8.358377e+001  1.363045e+001 -3.528814e+000
      vertex -8.459846e+001  1.383817e+001 -3.525179e+000
    endloop
  endfacet
  facet normal  2.553060e-001  9.591619e-001  1.217671e-001
    outer loop
      vertex -8.477090e+001  1.365991e+001 -1.759436e+000
      vertex -8.459846e+001  1.383817e+001 -3.525179e+000
      vertex -8.683532e+001  1.421082e+001 -1.770529e+000
    endloop
  endfacet
  facet normal  2.591724e-001  9.574365e-001  1.270626e-001
    outer loop
      vertex -8.683532e+001  1.421082e+001 -1.770529e+000
      vertex -8.459846e+001  1.383817e+001 -3.525179e+000
      vertex -8.659943e+001  1.438172e+001 -3.539468e+000
    endloop
  endfacet
  facet normal  3.178121e-001  9.387681e-001  1.330787e-001
    outer loop
      vertex -8.683532e+001  1.421082e+001 -1.770529e+000
      vertex -8.659943e+001  1.438172e+001 -3.539468e+000
      vertex -8.784432e+001  1.455447e+001 -1.785124e+000
    endloop
  endfacet
  facet normal  3.213939e-001  9.371607e-001  1.357787e-001
    outer loop
      vertex -8.784432e+001  1.455447e+001 -1.785124e+000
      vertex -8.659943e+001  1.438172e+001 -3.539468e+000
      vertex -8.757611e+001  1.471939e+001 -3.558268e+000
    endloop
  endfacet
  facet normal -2.945486e-001  9.461501e-001 -1.343171e-001
    outer loop
      vertex -7.128991e+001  1.454651e+001  4.421625e+000
      vertex -7.020022e+001  1.492479e+001  4.696630e+000
      vertex -7.011057e+001  1.482212e+001  3.776815e+000
    endloop
  endfacet
  facet normal -2.920820e-001  9.476299e-001 -1.291731e-001
    outer loop
      vertex -7.128991e+001  1.454651e+001  4.421625e+000
      vertex -7.011057e+001  1.482212e+001  3.776815e+000
      vertex -7.125394e+001  1.445097e+001  3.639401e+000
    endloop
  endfacet
  facet normal -2.888871e-001  9.380248e-001 -1.914519e-001
    outer loop
      vertex -7.051263e+001  1.501479e+001  5.609009e+000
      vertex -7.020022e+001  1.492479e+001  4.696630e+000
      vertex -7.140383e+001  1.461941e+001  5.016577e+000
    endloop
  endfacet
  facet normal -2.985780e-001  9.507267e-001 -8.348610e-002
    outer loop
      vertex -7.011057e+001  1.482212e+001  3.776815e+000
      vertex -7.018401e+001  1.471733e+001  2.846121e+000
      vertex -7.125394e+001  1.445097e+001  3.639401e+000
    endloop
  endfacet
  facet normal -3.001567e-001  9.500186e-001 -8.585308e-002
    outer loop
      vertex -7.125394e+001  1.445097e+001  3.639401e+000
      vertex -7.018401e+001  1.471733e+001  2.846121e+000
      vertex -7.131562e+001  1.436003e+001  2.848706e+000
    endloop
  endfacet
  facet normal -2.597293e-001  9.614483e-001 -9.032110e-002
    outer loop
      vertex -7.125394e+001  1.445097e+001  3.639401e+000
      vertex -7.131562e+001  1.436003e+001  2.848706e+000
      vertex -7.240831e+001  1.413923e+001  3.640455e+000
    endloop
  endfacet
  facet normal -2.631421e-001  9.600260e-001 -9.542783e-002
    outer loop
      vertex -7.240831e+001  1.413923e+001  3.640455e+000
      vertex -7.131562e+001  1.436003e+001  2.848706e+000
      vertex -7.246062e+001  1.404630e+001  2.849854e+000
    endloop
  endfacet
  facet normal -2.001362e-001  9.745172e-001 -1.012996e-001
    outer loop
      vertex -7.240831e+001  1.413923e+001  3.640455e+000
      vertex -7.246062e+001  1.404630e+001  2.849854e+000
      vertex -7.475138e+001  1.365800e+001  3.640181e+000
    endloop
  endfacet
  facet normal -2.025383e-001  9.731993e-001 -1.089095e-001
    outer loop
      vertex -7.475138e+001  1.365800e+001  3.640181e+000
      vertex -7.246062e+001  1.404630e+001  2.849854e+000
      vertex -7.478578e+001  1.356236e+001  2.849555e+000
    endloop
  endfacet
  facet normal -1.208197e-001  9.861037e-001 -1.140262e-001
    outer loop
      vertex -7.475138e+001  1.365800e+001  3.640181e+000
      vertex -7.478578e+001  1.356236e+001  2.849555e+000
      vertex -7.712501e+001  1.336696e+001  3.638253e+000
    endloop
  endfacet
  facet normal -1.222125e-001  9.854254e-001 -1.183252e-001
    outer loop
      vertex -7.712501e+001  1.336696e+001  3.638253e+000
      vertex -7.478578e+001  1.356236e+001  2.849555e+000
      vertex -7.714214e+001  1.326988e+001  2.847456e+000
    endloop
  endfacet
  facet normal -4.051582e-002  9.918397e-001 -1.208821e-001
    outer loop
      vertex -7.712501e+001  1.336696e+001  3.638253e+000
      vertex -7.714214e+001  1.326988e+001  2.847456e+000
      vertex -7.951263e+001  1.317288e+001  2.846121e+000
    endloop
  endfacet
  facet normal -2.407206e-002  9.868902e-001 -1.595881e-001
    outer loop
      vertex -7.951263e+001  1.317288e+001  2.846121e+000
      vertex -7.951263e+001  1.361966e+001  5.609009e+000
      vertex -7.713606e+001  1.348549e+001  4.420787e+000
    endloop
  endfacet
  facet normal -3.215627e-002  9.839671e-001 -1.754272e-001
    outer loop
      vertex -7.713606e+001  1.348549e+001  4.420787e+000
      vertex -7.951263e+001  1.361966e+001  5.609009e+000
      vertex -7.716948e+001  1.359053e+001  5.016109e+000
    endloop
  endfacet
  facet normal -1.176975e-001  9.767906e-001 -1.789625e-001
    outer loop
      vertex -7.713606e+001  1.348549e+001  4.420787e+000
      vertex -7.716948e+001  1.359053e+001  5.016109e+000
      vertex -7.477335e+001  1.377044e+001  4.422194e+000
    endloop
  endfacet
  facet normal -1.159475e-001  9.783497e-001 -1.714297e-001
    outer loop
      vertex -7.477335e+001  1.377044e+001  4.422194e+000
      vertex -7.716948e+001  1.359053e+001  5.016109e+000
      vertex -7.484005e+001  1.386674e+001  5.016894e+000
    endloop
  endfacet
  facet normal -1.947435e-001  9.645615e-001 -1.780340e-001
    outer loop
      vertex -7.477335e+001  1.377044e+001  4.422194e+000
      vertex -7.484005e+001  1.386674e+001  5.016894e+000
      vertex -7.244016e+001  1.424154e+001  4.422394e+000
    endloop
  endfacet
  facet normal -1.920821e-001  9.673137e-001 -1.655554e-001
    outer loop
      vertex -7.244016e+001  1.424154e+001  4.422394e+000
      vertex -7.484005e+001  1.386674e+001  5.016894e+000
      vertex -7.253896e+001  1.432369e+001  5.017006e+000
    endloop
  endfacet
  facet normal -2.525019e-001  9.519199e-001 -1.734680e-001
    outer loop
      vertex -7.244016e+001  1.424154e+001  4.422394e+000
      vertex -7.253896e+001  1.432369e+001  5.017006e+000
      vertex -7.128991e+001  1.454651e+001  4.421625e+000
    endloop
  endfacet
  facet normal -2.487202e-001  9.544916e-001 -1.645720e-001
    outer loop
      vertex -7.128991e+001  1.454651e+001  4.421625e+000
      vertex -7.253896e+001  1.432369e+001  5.017006e+000
      vertex -7.140383e+001  1.461941e+001  5.016577e+000
    endloop
  endfacet
  facet normal -2.845820e-001  9.434426e-001 -1.700851e-001
    outer loop
      vertex -7.128991e+001  1.454651e+001  4.421625e+000
      vertex -7.140383e+001  1.461941e+001  5.016577e+000
      vertex -7.020022e+001  1.492479e+001  4.696630e+000
    endloop
  endfacet
  facet normal -2.581791e-001  9.366453e-001 -2.367258e-001
    outer loop
      vertex -7.051263e+001  1.501479e+001  5.609009e+000
      vertex -7.140383e+001  1.461941e+001  5.016577e+000
      vertex -7.271574e+001  1.440752e+001  5.609009e+000
    endloop
  endfacet
  facet normal -2.466753e-001  9.465795e-001 -2.076985e-001
    outer loop
      vertex -7.271574e+001  1.440752e+001  5.609009e+000
      vertex -7.140383e+001  1.461941e+001  5.016577e+000
      vertex -7.253896e+001  1.432369e+001  5.017006e+000
    endloop
  endfacet
  facet normal -1.873607e-001  9.632741e-001 -1.923511e-001
    outer loop
      vertex -7.271574e+001  1.440752e+001  5.609009e+000
      vertex -7.253896e+001  1.432369e+001  5.017006e+000
      vertex -7.495899e+001  1.397120e+001  5.609009e+000
    endloop
  endfacet
  facet normal -1.905268e-001  9.594916e-001 -2.075458e-001
    outer loop
      vertex -7.495899e+001  1.397120e+001  5.609009e+000
      vertex -7.253896e+001  1.432369e+001  5.017006e+000
      vertex -7.484005e+001  1.386674e+001  5.016894e+000
    endloop
  endfacet
  facet normal -1.130157e-001  9.743508e-001 -1.945971e-001
    outer loop
      vertex -7.495899e+001  1.397120e+001  5.609009e+000
      vertex -7.484005e+001  1.386674e+001  5.016894e+000
      vertex -7.722906e+001  1.370789e+001  5.609009e+000
    endloop
  endfacet
  facet normal -1.152034e-001  9.721668e-001 -2.040094e-001
    outer loop
      vertex -7.722906e+001  1.370789e+001  5.609009e+000
      vertex -7.484005e+001  1.386674e+001  5.016894e+000
      vertex -7.716948e+001  1.359053e+001  5.016109e+000
    endloop
  endfacet
  facet normal -3.784547e-002  9.795331e-001 -1.976932e-001
    outer loop
      vertex -7.722906e+001  1.370789e+001  5.609009e+000
      vertex -7.716948e+001  1.359053e+001  5.016109e+000
      vertex -7.951263e+001  1.361966e+001  5.609009e+000
    endloop
  endfacet
  facet normal -3.072942e-001  9.511639e-001  2.927855e-002
    outer loop
      vertex -7.047180e+001  1.458404e+001  1.430399e+000
      vertex -7.082104e+001  1.451524e+001  1.619291e-004
      vertex -7.156704e+001  1.423014e+001  1.432305e+000
    endloop
  endfacet
  facet normal -2.934237e-001  9.552539e-001  3.731782e-002
    outer loop
      vertex -7.156704e+001  1.423014e+001  1.432305e+000
      vertex -7.082104e+001  1.451524e+001  1.619291e-004
      vertex -7.293823e+001  1.386490e+001  1.619291e-004
    endloop
  endfacet
  facet normal -2.690679e-001  9.630463e-001  1.201122e-002
    outer loop
      vertex -7.156704e+001  1.423014e+001  1.432305e+000
      vertex -7.293823e+001  1.386490e+001  1.619291e-004
      vertex -7.267592e+001  1.392032e+001  1.433151e+000
    endloop
  endfacet
  facet normal -2.074862e-001  9.782380e-001  1.509807e-004
    outer loop
      vertex -7.267592e+001  1.392032e+001  1.433151e+000
      vertex -7.293823e+001  1.386490e+001  1.619291e-004
      vertex -7.492882e+001  1.344247e+001  1.432931e+000
    endloop
  endfacet
  facet normal -2.112475e-001  9.774181e-001 -5.316508e-003
    outer loop
      vertex -7.492882e+001  1.344247e+001  1.432931e+000
      vertex -7.293823e+001  1.386490e+001  1.619291e-004
      vertex -7.510310e+001  1.339701e+001  1.619291e-004
    endloop
  endfacet
  facet normal -1.252506e-001  9.919922e-001 -1.623936e-002
    outer loop
      vertex -7.492882e+001  1.344247e+001  1.432931e+000
      vertex -7.510310e+001  1.339701e+001  1.619291e-004
      vertex -7.721336e+001  1.315400e+001  1.431384e+000
    endloop
  endfacet
  facet normal -1.276235e-001  9.916250e-001 -1.980043e-002
    outer loop
      vertex -7.721336e+001  1.315400e+001  1.431384e+000
      vertex -7.510310e+001  1.339701e+001  1.619291e-004
      vertex -7.729984e+001  1.311429e+001  1.619291e-004
    endloop
  endfacet
  facet normal -4.162696e-002  9.988155e-001 -2.519612e-002
    outer loop
      vertex -7.721336e+001  1.315400e+001  1.431384e+000
      vertex -7.729984e+001  1.311429e+001  1.619291e-004
      vertex -7.951263e+001  1.305815e+001  1.430399e+000
    endloop
  endfacet
  facet normal -4.280711e-002  9.987177e-001 -2.702583e-002
    outer loop
      vertex -7.951263e+001  1.305815e+001  1.430399e+000
      vertex -7.729984e+001  1.311429e+001  1.619291e-004
      vertex -7.951263e+001  1.301945e+001  1.619291e-004
    endloop
  endfacet
  facet normal -3.010265e-001  9.531884e-001 -2.854707e-002
    outer loop
      vertex -7.018401e+001  1.471733e+001  2.846121e+000
      vertex -7.047180e+001  1.458404e+001  1.430399e+000
      vertex -7.131562e+001  1.436003e+001  2.848706e+000
    endloop
  endfacet
  facet normal -3.073596e-001  9.510329e-001 -3.265537e-002
    outer loop
      vertex -7.131562e+001  1.436003e+001  2.848706e+000
      vertex -7.047180e+001  1.458404e+001  1.430399e+000
      vertex -7.156704e+001  1.423014e+001  1.432305e+000
    endloop
  endfacet
  facet normal -2.640702e-001  9.636106e-001 -4.149291e-002
    outer loop
      vertex -7.131562e+001  1.436003e+001  2.848706e+000
      vertex -7.156704e+001  1.423014e+001  1.432305e+000
      vertex -7.246062e+001  1.404630e+001  2.849854e+000
    endloop
  endfacet
  facet normal -2.688584e-001  9.621418e-001 -4.470171e-002
    outer loop
      vertex -7.246062e+001  1.404630e+001  2.849854e+000
      vertex -7.156704e+001  1.423014e+001  1.432305e+000
      vertex -7.267592e+001  1.392032e+001  1.433151e+000
    endloop
  endfacet
  facet normal -2.034370e-001  9.774848e-001 -5.600846e-002
    outer loop
      vertex -7.246062e+001  1.404630e+001  2.849854e+000
      vertex -7.267592e+001  1.392032e+001  1.433151e+000
      vertex -7.478578e+001  1.356236e+001  2.849555e+000
    endloop
  endfacet
  facet normal -2.070848e-001  9.763740e-001 -6.172284e-002
    outer loop
      vertex -7.478578e+001  1.356236e+001  2.849555e+000
      vertex -7.267592e+001  1.392032e+001  1.433151e+000
      vertex -7.492882e+001  1.344247e+001  1.432931e+000
    endloop
  endfacet
  facet normal -1.228049e-001  9.898609e-001 -7.137395e-002
    outer loop
      vertex -7.478578e+001  1.356236e+001  2.849555e+000
      vertex -7.492882e+001  1.344247e+001  1.432931e+000
      vertex -7.714214e+001  1.326988e+001  2.847456e+000
    endloop
  endfacet
  facet normal -1.248784e-001  9.893575e-001 -7.467973e-002
    outer loop
      vertex -7.714214e+001  1.326988e+001  2.847456e+000
      vertex -7.492882e+001  1.344247e+001  1.432931e+000
      vertex -7.721336e+001  1.315400e+001  1.431384e+000
    endloop
  endfacet
  facet normal -4.070966e-002  9.960067e-001 -7.945706e-002
    outer loop
      vertex -7.714214e+001  1.326988e+001  2.847456e+000
      vertex -7.721336e+001  1.315400e+001  1.431384e+000
      vertex -7.951263e+001  1.317288e+001  2.846121e+000
    endloop
  endfacet
  facet normal -4.148057e-002  9.958743e-001 -8.070818e-002
    outer loop
      vertex -7.951263e+001  1.317288e+001  2.846121e+000
      vertex -7.721336e+001  1.315400e+001  1.431384e+000
      vertex -7.951263e+001  1.305815e+001  1.430399e+000
    endloop
  endfacet
  facet normal -2.542259e-001  9.585348e-001 -1.287645e-001
    outer loop
      vertex -7.128991e+001  1.454651e+001  4.421625e+000
      vertex -7.125394e+001  1.445097e+001  3.639401e+000
      vertex -7.244016e+001  1.424154e+001  4.422394e+000
    endloop
  endfacet
  facet normal -2.584226e-001  9.564565e-001 -1.356784e-001
    outer loop
      vertex -7.244016e+001  1.424154e+001  4.422394e+000
      vertex -7.125394e+001  1.445097e+001  3.639401e+000
      vertex -7.240831e+001  1.413923e+001  3.640455e+000
    endloop
  endfacet
  facet normal -1.960951e-001  9.712373e-001 -1.350735e-001
    outer loop
      vertex -7.244016e+001  1.424154e+001  4.422394e+000
      vertex -7.240831e+001  1.413923e+001  3.640455e+000
      vertex -7.477335e+001  1.377044e+001  4.422194e+000
    endloop
  endfacet
  facet normal -1.990417e-001  9.692131e-001 -1.449430e-001
    outer loop
      vertex -7.477335e+001  1.377044e+001  4.422194e+000
      vertex -7.240831e+001  1.413923e+001  3.640455e+000
      vertex -7.475138e+001  1.365800e+001  3.640181e+000
    endloop
  endfacet
  facet normal -1.183928e-001  9.823861e-001 -1.445709e-001
    outer loop
      vertex -7.477335e+001  1.377044e+001  4.422194e+000
      vertex -7.475138e+001  1.365800e+001  3.640181e+000
      vertex -7.713606e+001  1.348549e+001  4.420787e+000
    endloop
  endfacet
  facet normal -1.202013e-001  9.813005e-001 -1.503355e-001
    outer loop
      vertex -7.713606e+001  1.348549e+001  4.420787e+000
      vertex -7.475138e+001  1.365800e+001  3.640181e+000
      vertex -7.712501e+001  1.336696e+001  3.638253e+000
    endloop
  endfacet
  facet normal -3.052185e-002  9.881976e-001 -1.501133e-001
    outer loop
      vertex -7.713606e+001  1.348549e+001  4.420787e+000
      vertex -7.712501e+001  1.336696e+001  3.638253e+000
      vertex -7.951263e+001  1.317288e+001  2.846121e+000
    endloop
  endfacet
  facet normal  2.888873e-001  9.380246e-001 -1.914519e-001
    outer loop
      vertex -8.851263e+001  1.501479e+001  5.609009e+000
      vertex -8.762142e+001  1.461941e+001  5.016578e+000
      vertex -8.882504e+001  1.492479e+001  4.696630e+000
    endloop
  endfacet
  facet normal  2.581791e-001  9.366453e-001 -2.367262e-001
    outer loop
      vertex -8.851263e+001  1.501479e+001  5.609009e+000
      vertex -8.630952e+001  1.440752e+001  5.609009e+000
      vertex -8.762142e+001  1.461941e+001  5.016578e+000
    endloop
  endfacet
  facet normal  2.934237e-001  9.552539e-001  3.731782e-002
    outer loop
      vertex -8.820422e+001  1.451524e+001  1.619291e-004
      vertex -8.745822e+001  1.423014e+001  1.432305e+000
      vertex -8.608703e+001  1.386490e+001  1.619291e-004
    endloop
  endfacet
  facet normal  3.072942e-001  9.511640e-001  2.927855e-002
    outer loop
      vertex -8.820422e+001  1.451524e+001  1.619291e-004
      vertex -8.855346e+001  1.458404e+001  1.430399e+000
      vertex -8.745822e+001  1.423014e+001  1.432305e+000
    endloop
  endfacet
  facet normal  2.985789e-001  9.507264e-001 -8.348449e-002
    outer loop
      vertex -8.891469e+001  1.482212e+001  3.776815e+000
      vertex -8.777132e+001  1.445097e+001  3.639402e+000
      vertex -8.884125e+001  1.471733e+001  2.846120e+000
    endloop
  endfacet
  facet normal  2.945503e-001  9.461493e-001 -1.343186e-001
    outer loop
      vertex -8.882504e+001  1.492479e+001  4.696630e+000
      vertex -8.773535e+001  1.454651e+001  4.421627e+000
      vertex -8.891469e+001  1.482212e+001  3.776815e+000
    endloop
  endfacet
  facet normal  3.784534e-002  9.795331e-001 -1.976935e-001
    outer loop
      vertex -7.951263e+001  1.361966e+001  5.609009e+000
      vertex -8.185578e+001  1.359053e+001  5.016110e+000
      vertex -8.179620e+001  1.370789e+001  5.609009e+000
    endloop
  endfacet
  facet normal  4.051569e-002  9.918396e-001 -1.208823e-001
    outer loop
      vertex -7.951263e+001  1.317288e+001  2.846121e+000
      vertex -8.188313e+001  1.326988e+001  2.847456e+000
      vertex -8.190025e+001  1.336696e+001  3.638254e+000
    endloop
  endfacet
  facet normal  3.052157e-002  9.881974e-001 -1.501139e-001
    outer loop
      vertex -7.951263e+001  1.317288e+001  2.846121e+000
      vertex -8.190025e+001  1.336696e+001  3.638254e+000
      vertex -8.188920e+001  1.348549e+001  4.420789e+000
    endloop
  endfacet
  facet normal  1.388209e-002  9.845585e-001 -1.745046e-001
    outer loop
      vertex -7.951263e+001  1.317288e+001  2.846121e+000
      vertex -8.188920e+001  1.348549e+001  4.420789e+000
      vertex -8.185578e+001  1.359053e+001  5.016110e+000
    endloop
  endfacet
  facet normal  2.810894e-002  9.867862e-001 -1.595712e-001
    outer loop
      vertex -7.951263e+001  1.317288e+001  2.846121e+000
      vertex -8.185578e+001  1.359053e+001  5.016110e+000
      vertex -7.951263e+001  1.361966e+001  5.609009e+000
    endloop
  endfacet
  facet normal  1.127994e-001  9.724860e-001 -2.038313e-001
    outer loop
      vertex -8.179620e+001  1.370789e+001  5.609009e+000
      vertex -8.185578e+001  1.359053e+001  5.016110e+000
      vertex -8.406627e+001  1.397120e+001  5.609009e+000
    endloop
  endfacet
  facet normal  1.154220e-001  9.739848e-001 -1.950162e-001
    outer loop
      vertex -8.406627e+001  1.397120e+001  5.609009e+000
      vertex -8.185578e+001  1.359053e+001  5.016110e+000
      vertex -8.418521e+001  1.386674e+001  5.016895e+000
    endloop
  endfacet
  facet normal  1.867934e-001  9.603544e-001 -2.069484e-001
    outer loop
      vertex -8.406627e+001  1.397120e+001  5.609009e+000
      vertex -8.418521e+001  1.386674e+001  5.016895e+000
      vertex -8.630952e+001  1.440752e+001  5.609009e+000
    endloop
  endfacet
  facet normal  1.692889e-001  9.504583e-001 -2.607108e-001
    outer loop
      vertex -8.630952e+001  1.440752e+001  5.609009e+000
      vertex -8.418521e+001  1.386674e+001  5.016895e+000
      vertex -8.534030e+001  1.407252e+001  5.017075e+000
    endloop
  endfacet
  facet normal  2.299287e-001  9.589103e-001 -1.662041e-001
    outer loop
      vertex -8.630952e+001  1.440752e+001  5.609009e+000
      vertex -8.534030e+001  1.407252e+001  5.017075e+000
      vertex -8.762142e+001  1.461941e+001  5.016578e+000
    endloop
  endfacet
  facet normal  4.162404e-002  9.987677e-001 -2.702718e-002
    outer loop
      vertex -7.951263e+001  1.305815e+001  1.430399e+000
      vertex -7.951263e+001  1.301945e+001  1.619291e-004
      vertex -8.181190e+001  1.315400e+001  1.431384e+000
    endloop
  endfacet
  facet normal  4.280924e-002  9.987674e-001 -2.512312e-002
    outer loop
      vertex -8.181190e+001  1.315400e+001  1.431384e+000
      vertex -7.951263e+001  1.301945e+001  1.619291e-004
      vertex -8.172542e+001  1.311429e+001  1.619291e-004
    endloop
  endfacet
  facet normal  1.252402e-001  9.919258e-001 -1.995212e-002
    outer loop
      vertex -8.181190e+001  1.315400e+001  1.431384e+000
      vertex -8.172542e+001  1.311429e+001  1.619291e-004
      vertex -8.409644e+001  1.344247e+001  1.432931e+000
    endloop
  endfacet
  facet normal  1.276323e-001  9.916934e-001 -1.594018e-002
    outer loop
      vertex -8.409644e+001  1.344247e+001  1.432931e+000
      vertex -8.172542e+001  1.311429e+001  1.619291e-004
      vertex -8.392216e+001  1.339701e+001  1.619291e-004
    endloop
  endfacet
  facet normal  1.865310e-001  9.824124e-001 -8.481420e-003
    outer loop
      vertex -8.409644e+001  1.344247e+001  1.432931e+000
      vertex -8.392216e+001  1.339701e+001  1.619291e-004
      vertex -8.522809e+001  1.365734e+001  1.433285e+000
    endloop
  endfacet
  facet normal  2.112262e-001  9.773229e-001  1.494652e-002
    outer loop
      vertex -8.522809e+001  1.365734e+001  1.433285e+000
      vertex -8.392216e+001  1.339701e+001  1.619291e-004
      vertex -8.608703e+001  1.386490e+001  1.619291e-004
    endloop
  endfacet
  facet normal  2.487637e-001  9.685240e-001 -8.825839e-003
    outer loop
      vertex -8.522809e+001  1.365734e+001  1.433285e+000
      vertex -8.608703e+001  1.386490e+001  1.619291e-004
      vertex -8.745822e+001  1.423014e+001  1.432305e+000
    endloop
  endfacet
  facet normal  4.070472e-002  9.959061e-001 -8.071077e-002
    outer loop
      vertex -7.951263e+001  1.317288e+001  2.846121e+000
      vertex -7.951263e+001  1.305815e+001  1.430399e+000
      vertex -8.188313e+001  1.326988e+001  2.847456e+000
    endloop
  endfacet
  facet normal  4.148531e-002  9.959780e-001 -7.941569e-002
    outer loop
      vertex -8.188313e+001  1.326988e+001  2.847456e+000
      vertex -7.951263e+001  1.305815e+001  1.430399e+000
      vertex -8.181190e+001  1.315400e+001  1.431384e+000
    endloop
  endfacet
  facet normal  1.227713e-001  9.896116e-001 -7.480651e-002
    outer loop
      vertex -8.188313e+001  1.326988e+001  2.847456e+000
      vertex -8.181190e+001  1.315400e+001  1.431384e+000
      vertex -8.423947e+001  1.356236e+001  2.849555e+000
    endloop
  endfacet
  facet normal  1.249136e-001  9.896138e-001 -7.114015e-002
    outer loop
      vertex -8.423947e+001  1.356236e+001  2.849555e+000
      vertex -8.181190e+001  1.315400e+001  1.431384e+000
      vertex -8.409644e+001  1.344247e+001  1.432931e+000
    endloop
  endfacet
  facet normal  1.826892e-001  9.810474e-001 -6.458157e-002
    outer loop
      vertex -8.423947e+001  1.356236e+001  2.849555e+000
      vertex -8.409644e+001  1.344247e+001  1.432931e+000
      vertex -8.540727e+001  1.377986e+001  2.850035e+000
    endloop
  endfacet
  facet normal  1.861716e-001  9.806060e-001 -6.125530e-002
    outer loop
      vertex -8.540727e+001  1.377986e+001  2.850035e+000
      vertex -8.409644e+001  1.344247e+001  1.432931e+000
      vertex -8.522809e+001  1.365734e+001  1.433285e+000
    endloop
  endfacet
  facet normal  2.440366e-001  9.683235e-001 -5.287462e-002
    outer loop
      vertex -8.540727e+001  1.377986e+001  2.850035e+000
      vertex -8.522809e+001  1.365734e+001  1.433285e+000
      vertex -8.770963e+001  1.436003e+001  2.848706e+000
    endloop
  endfacet
  facet normal  2.485404e-001  9.675934e-001 -4.461611e-002
    outer loop
      vertex -8.770963e+001  1.436003e+001  2.848706e+000
      vertex -8.522809e+001  1.365734e+001  1.433285e+000
      vertex -8.745822e+001  1.423014e+001  1.432305e+000
    endloop
  endfacet
  facet normal  3.009867e-001  9.530231e-001 -3.397073e-002
    outer loop
      vertex -8.770963e+001  1.436003e+001  2.848706e+000
      vertex -8.745822e+001  1.423014e+001  1.432305e+000
      vertex -8.884125e+001  1.471733e+001  2.846120e+000
    endloop
  endfacet
  facet normal  3.074021e-001  9.511946e-001 -2.706494e-002
    outer loop
      vertex -8.884125e+001  1.471733e+001  2.846120e+000
      vertex -8.745822e+001  1.423014e+001  1.432305e+000
      vertex -8.855346e+001  1.458404e+001  1.430399e+000
    endloop
  endfacet
  facet normal  1.207539e-001  9.855987e-001 -1.183791e-001
    outer loop
      vertex -8.190025e+001  1.336696e+001  3.638254e+000
      vertex -8.188313e+001  1.326988e+001  2.847456e+000
      vertex -8.427388e+001  1.365800e+001  3.640182e+000
    endloop
  endfacet
  facet normal  1.222799e-001  9.859337e-001 -1.139407e-001
    outer loop
      vertex -8.427388e+001  1.365800e+001  3.640182e+000
      vertex -8.188313e+001  1.326988e+001  2.847456e+000
      vertex -8.423947e+001  1.356236e+001  2.849555e+000
    endloop
  endfacet
  facet normal  1.797161e-001  9.775016e-001 -1.104211e-001
    outer loop
      vertex -8.427388e+001  1.365800e+001  3.640182e+000
      vertex -8.423947e+001  1.356236e+001  2.849555e+000
      vertex -8.545050e+001  1.387438e+001  3.640623e+000
    endloop
  endfacet
  facet normal  1.820053e-001  9.774690e-001 -1.069036e-001
    outer loop
      vertex -8.545050e+001  1.387438e+001  3.640623e+000
      vertex -8.423947e+001  1.356236e+001  2.849555e+000
      vertex -8.540727e+001  1.377986e+001  2.850035e+000
    endloop
  endfacet
  facet normal  2.399009e-001  9.653928e-001 -1.022943e-001
    outer loop
      vertex -8.545050e+001  1.387438e+001  3.640623e+000
      vertex -8.540727e+001  1.377986e+001  2.850035e+000
      vertex -8.777132e+001  1.445097e+001  3.639402e+000
    endloop
  endfacet
  facet normal  2.433619e-001  9.655560e-001 -9.206778e-002
    outer loop
      vertex -8.777132e+001  1.445097e+001  3.639402e+000
      vertex -8.540727e+001  1.377986e+001  2.850035e+000
      vertex -8.770963e+001  1.436003e+001  2.848706e+000
    endloop
  endfacet
  facet normal  3.001567e-001  9.500188e-001 -8.585011e-002
    outer loop
      vertex -8.777132e+001  1.445097e+001  3.639402e+000
      vertex -8.770963e+001  1.436003e+001  2.848706e+000
      vertex -8.884125e+001  1.471733e+001  2.846120e+000
    endloop
  endfacet
  facet normal  1.182868e-001  9.815320e-001 -1.503433e-001
    outer loop
      vertex -8.188920e+001  1.348549e+001  4.420789e+000
      vertex -8.190025e+001  1.336696e+001  3.638254e+000
      vertex -8.425190e+001  1.377044e+001  4.422195e+000
    endloop
  endfacet
  facet normal  1.203097e-001  9.821498e-001 -1.445930e-001
    outer loop
      vertex -8.425190e+001  1.377044e+001  4.422195e+000
      vertex -8.190025e+001  1.336696e+001  3.638254e+000
      vertex -8.427388e+001  1.365800e+001  3.640182e+000
    endloop
  endfacet
  facet normal  1.761578e-001  9.736331e-001 -1.449382e-001
    outer loop
      vertex -8.425190e+001  1.377044e+001  4.422195e+000
      vertex -8.427388e+001  1.365800e+001  3.640182e+000
      vertex -8.542333e+001  1.398243e+001  4.422517e+000
    endloop
  endfacet
  facet normal  1.790096e-001  9.737223e-001 -1.407851e-001
    outer loop
      vertex -8.542333e+001  1.398243e+001  4.422517e+000
      vertex -8.427388e+001  1.365800e+001  3.640182e+000
      vertex -8.545050e+001  1.387438e+001  3.640623e+000
    endloop
  endfacet
  facet normal  2.347061e-001  9.617757e-001 -1.410694e-001
    outer loop
      vertex -8.542333e+001  1.398243e+001  4.422517e+000
      vertex -8.545050e+001  1.387438e+001  3.640623e+000
      vertex -8.773535e+001  1.454651e+001  4.421627e+000
    endloop
  endfacet
  facet normal  2.391783e-001  9.624287e-001 -1.285480e-001
    outer loop
      vertex -8.773535e+001  1.454651e+001  4.421627e+000
      vertex -8.545050e+001  1.387438e+001  3.640623e+000
      vertex -8.777132e+001  1.445097e+001  3.639402e+000
    endloop
  endfacet
  facet normal  2.920828e-001  9.476297e-001 -1.291729e-001
    outer loop
      vertex -8.773535e+001  1.454651e+001  4.421627e+000
      vertex -8.777132e+001  1.445097e+001  3.639402e+000
      vertex -8.891469e+001  1.482212e+001  3.776815e+000
    endloop
  endfacet
  facet normal  1.157886e-001  9.770308e-001 -1.788966e-001
    outer loop
      vertex -8.185578e+001  1.359053e+001  5.016110e+000
      vertex -8.188920e+001  1.348549e+001  4.420789e+000
      vertex -8.418521e+001  1.386674e+001  5.016895e+000
    endloop
  endfacet
  facet normal  1.178592e-001  9.780914e-001 -1.715995e-001
    outer loop
      vertex -8.418521e+001  1.386674e+001  5.016895e+000
      vertex -8.188920e+001  1.348549e+001  4.420789e+000
      vertex -8.425190e+001  1.377044e+001  4.422195e+000
    endloop
  endfacet
  facet normal  1.726205e-001  9.690856e-001 -1.762820e-001
    outer loop
      vertex -8.418521e+001  1.386674e+001  5.016895e+000
      vertex -8.425190e+001  1.377044e+001  4.422195e+000
      vertex -8.534030e+001  1.407252e+001  5.017075e+000
    endloop
  endfacet
  facet normal  1.753960e-001  9.694636e-001 -1.713960e-001
    outer loop
      vertex -8.534030e+001  1.407252e+001  5.017075e+000
      vertex -8.425190e+001  1.377044e+001  4.422195e+000
      vertex -8.542333e+001  1.398243e+001  4.422517e+000
    endloop
  endfacet
  facet normal  2.294895e-001  9.570685e-001 -1.770720e-001
    outer loop
      vertex -8.534030e+001  1.407252e+001  5.017075e+000
      vertex -8.542333e+001  1.398243e+001  4.422517e+000
      vertex -8.762142e+001  1.461941e+001  5.016578e+000
    endloop
  endfacet
  facet normal  2.339434e-001  9.586162e-001 -1.622512e-001
    outer loop
      vertex -8.762142e+001  1.461941e+001  5.016578e+000
      vertex -8.542333e+001  1.398243e+001  4.422517e+000
      vertex -8.773535e+001  1.454651e+001  4.421627e+000
    endloop
  endfacet
  facet normal  2.845829e-001  9.434416e-001 -1.700892e-001
    outer loop
      vertex -8.762142e+001  1.461941e+001  5.016578e+000
      vertex -8.773535e+001  1.454651e+001  4.421627e+000
      vertex -8.882504e+001  1.492479e+001  4.696630e+000
    endloop
  endfacet
  facet normal -4.126430e-002  9.254921e-001 -3.765122e-001
    outer loop
      vertex -7.765714e+001  1.549984e+001  1.105495e+001
      vertex -7.827273e+001  1.451189e+001  8.693977e+000
      vertex -7.858083e+001  1.551138e+001  1.118455e+001
    endloop
  endfacet
  facet normal -1.862718e-001  9.521049e-001 -2.424853e-001
    outer loop
      vertex -7.348789e+001  1.478029e+001  7.658559e+000
      vertex -7.495889e+001  1.397052e+001  5.609009e+000
      vertex -7.473147e+001  1.452538e+001  7.612939e+000
    endloop
  endfacet
  facet normal -2.792659e-001  9.214171e-001 -2.701871e-001
    outer loop
      vertex -7.095792e+001  1.508751e+001  6.425442e+000
      vertex -7.141885e+001  1.494822e+001  6.426854e+000
      vertex -7.147766e+001  1.515623e+001  7.196991e+000
    endloop
  endfacet
  facet normal -6.857680e-002  9.256228e-001 -3.721821e-001
    outer loop
      vertex -7.703398e+001  1.455372e+001  8.587128e+000
      vertex -7.765714e+001  1.549984e+001  1.105495e+001
      vertex -7.674960e+001  1.548070e+001  1.084015e+001
    endloop
  endfacet
  facet normal -5.449462e-002  9.687444e-001 -2.420012e-001
    outer loop
      vertex -7.722900e+001  1.370751e+001  5.609009e+000
      vertex -7.833827e+001  1.407602e+001  7.333965e+000
      vertex -7.716299e+001  1.413315e+001  7.298033e+000
    endloop
  endfacet
  facet normal -1.526388e-001  9.340233e-001 -3.229579e-001
    outer loop
      vertex -7.440956e+001  1.504174e+001  8.954174e+000
      vertex -7.473147e+001  1.452538e+001  7.612939e+000
      vertex -7.581284e+001  1.461659e+001  8.387821e+000
    endloop
  endfacet
  facet normal -1.321973e-001  9.460439e-001 -2.958460e-001
    outer loop
      vertex -7.599444e+001  1.422469e+001  7.215764e+000
      vertex -7.581284e+001  1.461659e+001  8.387821e+000
      vertex -7.473147e+001  1.452538e+001  7.612939e+000
    endloop
  endfacet
  facet normal -1.498758e-001  9.570968e-001 -2.479979e-001
    outer loop
      vertex -7.473147e+001  1.452538e+001  7.612939e+000
      vertex -7.495889e+001  1.397052e+001  5.609009e+000
      vertex -7.599444e+001  1.422469e+001  7.215764e+000
    endloop
  endfacet
  facet normal -1.794163e-001  9.317562e-001 -3.156583e-001
    outer loop
      vertex -7.440956e+001  1.504174e+001  8.954174e+000
      vertex -7.348789e+001  1.478029e+001  7.658559e+000
      vertex -7.473147e+001  1.452538e+001  7.612939e+000
    endloop
  endfacet
  facet normal -2.594329e-001  9.261636e-001 -2.737074e-001
    outer loop
      vertex -7.223332e+001  1.505234e+001  7.551146e+000
      vertex -7.141885e+001  1.494822e+001  6.426854e+000
      vertex -7.250744e+001  1.477006e+001  6.855802e+000
    endloop
  endfacet
  facet normal -2.526129e-001  9.338483e-001 -2.532077e-001
    outer loop
      vertex -7.250744e+001  1.477006e+001  6.855802e+000
      vertex -7.141885e+001  1.494822e+001  6.426854e+000
      vertex -7.153866e+001  1.483489e+001  6.128418e+000
    endloop
  endfacet
  facet normal -2.390331e-001  9.423031e-001 -2.343675e-001
    outer loop
      vertex -7.250744e+001  1.477006e+001  6.855802e+000
      vertex -7.153866e+001  1.483489e+001  6.128418e+000
      vertex -7.271567e+001  1.440714e+001  5.609009e+000
    endloop
  endfacet
  facet normal -2.611573e-001  9.468212e-001 -1.879538e-001
    outer loop
      vertex -7.051263e+001  1.501479e+001  5.609009e+000
      vertex -7.271567e+001  1.440714e+001  5.609009e+000
      vertex -7.153866e+001  1.483489e+001  6.128418e+000
    endloop
  endfacet
  facet normal -2.837076e-001  9.287075e-001 -2.387729e-001
    outer loop
      vertex -7.051263e+001  1.501479e+001  5.609009e+000
      vertex -7.153866e+001  1.483489e+001  6.128418e+000
      vertex -7.141885e+001  1.494822e+001  6.426854e+000
    endloop
  endfacet
  facet normal -2.817252e-001  9.298969e-001 -2.364794e-001
    outer loop
      vertex -7.051263e+001  1.501479e+001  5.609009e+000
      vertex -7.141885e+001  1.494822e+001  6.426854e+000
      vertex -7.095792e+001  1.508751e+001  6.425442e+000
    endloop
  endfacet
  facet normal -3.739194e-002  9.720654e-001 -2.317124e-001
    outer loop
      vertex -7.722900e+001  1.370751e+001  5.609009e+000
      vertex -7.951263e+001  1.361966e+001  5.609009e+000
      vertex -7.833827e+001  1.407602e+001  7.333965e+000
    endloop
  endfacet
  facet normal -1.774601e-002  9.695092e-001 -2.444112e-001
    outer loop
      vertex -7.833827e+001  1.407602e+001  7.333965e+000
      vertex -7.951263e+001  1.361966e+001  5.609009e+000
      vertex -7.951263e+001  1.405645e+001  7.341605e+000
    endloop
  endfacet
  facet normal -1.785077e-002  9.523859e-001 -3.043723e-001
    outer loop
      vertex -7.833827e+001  1.407602e+001  7.333965e+000
      vertex -7.951263e+001  1.405645e+001  7.341605e+000
      vertex -7.827273e+001  1.451189e+001  8.693977e+000
    endloop
  endfacet
  facet normal -1.928339e-002  9.527389e-001 -3.031778e-001
    outer loop
      vertex -7.827273e+001  1.451189e+001  8.693977e+000
      vertex -7.951263e+001  1.405645e+001  7.341605e+000
      vertex -7.951263e+001  1.449677e+001  8.725321e+000
    endloop
  endfacet
  facet normal -2.077377e-002  9.269663e-001 -3.745690e-001
    outer loop
      vertex -7.827273e+001  1.451189e+001  8.693977e+000
      vertex -7.951263e+001  1.449677e+001  8.725321e+000
      vertex -7.858083e+001  1.551138e+001  1.118455e+001
    endloop
  endfacet
  facet normal -1.368643e-002  9.261463e-001 -3.769161e-001
    outer loop
      vertex -7.858083e+001  1.551138e+001  1.118455e+001
      vertex -7.951263e+001  1.449677e+001  8.725321e+000
      vertex -7.951263e+001  1.551524e+001  1.122787e+001
    endloop
  endfacet
  facet normal -1.121266e-001  9.678015e-001 -2.253619e-001
    outer loop
      vertex -7.495889e+001  1.397052e+001  5.609009e+000
      vertex -7.722900e+001  1.370751e+001  5.609009e+000
      vertex -7.599444e+001  1.422469e+001  7.215764e+000
    endloop
  endfacet
  facet normal -9.258743e-002  9.663690e-001 -2.399138e-001
    outer loop
      vertex -7.599444e+001  1.422469e+001  7.215764e+000
      vertex -7.722900e+001  1.370751e+001  5.609009e+000
      vertex -7.716299e+001  1.413315e+001  7.298033e+000
    endloop
  endfacet
  facet normal -9.557321e-002  9.484062e-001 -3.023102e-001
    outer loop
      vertex -7.599444e+001  1.422469e+001  7.215764e+000
      vertex -7.716299e+001  1.413315e+001  7.298033e+000
      vertex -7.581284e+001  1.461659e+001  8.387821e+000
    endloop
  endfacet
  facet normal -9.778814e-002  9.489717e-001 -2.998169e-001
    outer loop
      vertex -7.581284e+001  1.461659e+001  8.387821e+000
      vertex -7.716299e+001  1.413315e+001  7.298033e+000
      vertex -7.703398e+001  1.455372e+001  8.587128e+000
    endloop
  endfacet
  facet normal -1.068419e-001  9.258013e-001 -3.625971e-001
    outer loop
      vertex -7.581284e+001  1.461659e+001  8.387821e+000
      vertex -7.703398e+001  1.455372e+001  8.587128e+000
      vertex -7.586613e+001  1.545415e+001  1.054204e+001
    endloop
  endfacet
  facet normal -9.647857e-002  9.246960e-001 -3.682790e-001
    outer loop
      vertex -7.586613e+001  1.545415e+001  1.054204e+001
      vertex -7.703398e+001  1.455372e+001  8.587128e+000
      vertex -7.674960e+001  1.548070e+001  1.084015e+001
    endloop
  endfacet
  facet normal -1.851836e-001  9.514121e-001 -2.460125e-001
    outer loop
      vertex -7.271567e+001  1.440714e+001  5.609009e+000
      vertex -7.495889e+001  1.397052e+001  5.609009e+000
      vertex -7.250744e+001  1.477006e+001  6.855802e+000
    endloop
  endfacet
  facet normal -1.877355e-001  9.520863e-001 -2.414274e-001
    outer loop
      vertex -7.250744e+001  1.477006e+001  6.855802e+000
      vertex -7.495889e+001  1.397052e+001  5.609009e+000
      vertex -7.348789e+001  1.478029e+001  7.658559e+000
    endloop
  endfacet
  facet normal -2.264335e-001  9.303467e-001 -2.884145e-001
    outer loop
      vertex -7.250744e+001  1.477006e+001  6.855802e+000
      vertex -7.348789e+001  1.478029e+001  7.658559e+000
      vertex -7.223332e+001  1.505234e+001  7.551146e+000
    endloop
  endfacet
  facet normal -5.553982e-002  9.508420e-001 -3.046554e-001
    outer loop
      vertex -7.716299e+001  1.413315e+001  7.298033e+000
      vertex -7.833827e+001  1.407602e+001  7.333965e+000
      vertex -7.703398e+001  1.455372e+001  8.587128e+000
    endloop
  endfacet
  facet normal -5.819273e-002  9.514858e-001 -3.021396e-001
    outer loop
      vertex -7.703398e+001  1.455372e+001  8.587128e+000
      vertex -7.833827e+001  1.407602e+001  7.333965e+000
      vertex -7.827273e+001  1.451189e+001  8.693977e+000
    endloop
  endfacet
  facet normal -6.329875e-002  9.264122e-001 -3.711520e-001
    outer loop
      vertex -7.703398e+001  1.455372e+001  8.587128e+000
      vertex -7.827273e+001  1.451189e+001  8.693977e+000
      vertex -7.765714e+001  1.549984e+001  1.105495e+001
    endloop
  endfacet
  facet normal -1.719134e-001  9.276943e-001 -3.314044e-001
    outer loop
      vertex -7.343534e+001  1.533261e+001  9.177402e+000
      vertex -7.348789e+001  1.478029e+001  7.658559e+000
      vertex -7.420176e+001  1.537978e+001  9.707019e+000
    endloop
  endfacet
  facet normal -2.278949e-001  9.102132e-001 -3.457974e-001
    outer loop
      vertex -7.420176e+001  1.537978e+001  9.707019e+000
      vertex -7.348789e+001  1.478029e+001  7.658559e+000
      vertex -7.440956e+001  1.504174e+001  8.954174e+000
    endloop
  endfacet
  facet normal -1.603085e-001  9.162399e-001 -3.671589e-001
    outer loop
      vertex -7.420176e+001  1.537978e+001  9.707019e+000
      vertex -7.440956e+001  1.504174e+001  8.954174e+000
      vertex -7.501438e+001  1.542041e+001  1.016322e+001
    endloop
  endfacet
  facet normal -1.357511e-001  9.240623e-001 -3.573241e-001
    outer loop
      vertex -7.501438e+001  1.542041e+001  1.016322e+001
      vertex -7.440956e+001  1.504174e+001  8.954174e+000
      vertex -7.581284e+001  1.461659e+001  8.387821e+000
    endloop
  endfacet
  facet normal -1.245113e-001  9.237347e-001 -3.622307e-001
    outer loop
      vertex -7.501438e+001  1.542041e+001  1.016322e+001
      vertex -7.581284e+001  1.461659e+001  8.387821e+000
      vertex -7.586613e+001  1.545415e+001  1.054204e+001
    endloop
  endfacet
  facet normal -2.280011e-001  9.354575e-001 -2.700647e-001
    outer loop
      vertex -7.147766e+001  1.515623e+001  7.196991e+000
      vertex -7.141885e+001  1.494822e+001  6.426854e+000
      vertex -7.206733e+001  1.522035e+001  7.916922e+000
    endloop
  endfacet
  facet normal -2.843590e-001  9.136139e-001 -2.906024e-001
    outer loop
      vertex -7.206733e+001  1.522035e+001  7.916922e+000
      vertex -7.141885e+001  1.494822e+001  6.426854e+000
      vertex -7.223332e+001  1.505234e+001  7.551146e+000
    endloop
  endfacet
  facet normal -2.359751e-001  9.192390e-001 -3.151432e-001
    outer loop
      vertex -7.206733e+001  1.522035e+001  7.916922e+000
      vertex -7.223332e+001  1.505234e+001  7.551146e+000
      vertex -7.272179e+001  1.527931e+001  8.578973e+000
    endloop
  endfacet
  facet normal -2.267722e-001  9.227735e-001 -3.115501e-001
    outer loop
      vertex -7.272179e+001  1.527931e+001  8.578973e+000
      vertex -7.223332e+001  1.505234e+001  7.551146e+000
      vertex -7.348789e+001  1.478029e+001  7.658559e+000
    endloop
  endfacet
  facet normal -2.062987e-001  9.218455e-001 -3.280878e-001
    outer loop
      vertex -7.272179e+001  1.527931e+001  8.578973e+000
      vertex -7.348789e+001  1.478029e+001  7.658559e+000
      vertex -7.343534e+001  1.533261e+001  9.177402e+000
    endloop
  endfacet
  facet normal  1.853470e-001  9.522483e-001 -2.426306e-001
    outer loop
      vertex -8.429379e+001  1.452538e+001  7.612939e+000
      vertex -8.406638e+001  1.397052e+001  5.609009e+000
      vertex -8.630959e+001  1.440714e+001  5.609009e+000
    endloop
  endfacet
  facet normal  1.861887e-001  9.518735e-001 -2.434553e-001
    outer loop
      vertex -8.553736e+001  1.478029e+001  7.658559e+000
      vertex -8.429379e+001  1.452538e+001  7.612939e+000
      vertex -8.630959e+001  1.440714e+001  5.609009e+000
    endloop
  endfacet
  facet normal  1.905817e-001  9.506366e-001 -2.448852e-001
    outer loop
      vertex -8.553736e+001  1.478029e+001  7.658559e+000
      vertex -8.630959e+001  1.440714e+001  5.609009e+000
      vertex -8.651781e+001  1.477006e+001  6.855802e+000
    endloop
  endfacet
  facet normal  1.068419e-001  9.258013e-001 -3.625971e-001
    outer loop
      vertex -8.315913e+001  1.545415e+001  1.054204e+001
      vertex -8.199127e+001  1.455372e+001  8.587128e+000
      vertex -8.321241e+001  1.461659e+001  8.387821e+000
    endloop
  endfacet
  facet normal  1.245102e-001  9.237349e-001 -3.622307e-001
    outer loop
      vertex -8.315913e+001  1.545415e+001  1.054204e+001
      vertex -8.321241e+001  1.461659e+001  8.387821e+000
      vertex -8.401088e+001  1.542041e+001  1.016322e+001
    endloop
  endfacet
  facet normal  1.121262e-001  9.678015e-001 -2.253621e-001
    outer loop
      vertex -8.303082e+001  1.422469e+001  7.215764e+000
      vertex -8.179625e+001  1.370751e+001  5.609009e+000
      vertex -8.406638e+001  1.397052e+001  5.609009e+000
    endloop
  endfacet
  facet normal  4.126431e-002  9.254922e-001 -3.765123e-001
    outer loop
      vertex -8.044443e+001  1.551138e+001  1.118455e+001
      vertex -8.075253e+001  1.451189e+001  8.693977e+000
      vertex -8.136812e+001  1.549984e+001  1.105495e+001
    endloop
  endfacet
  facet normal  1.368644e-002  9.261463e-001 -3.769161e-001
    outer loop
      vertex -7.951263e+001  1.551524e+001  1.122787e+001
      vertex -7.951263e+001  1.449677e+001  8.725321e+000
      vertex -8.044443e+001  1.551138e+001  1.118455e+001
    endloop
  endfacet
  facet normal  1.774589e-002  9.695093e-001 -2.444111e-001
    outer loop
      vertex -7.951263e+001  1.361966e+001  5.609009e+000
      vertex -8.068699e+001  1.407602e+001  7.333965e+000
      vertex -7.951263e+001  1.405645e+001  7.341605e+000
    endloop
  endfacet
  facet normal  2.594307e-001  9.261646e-001 -2.737059e-001
    outer loop
      vertex -8.679194e+001  1.505234e+001  7.551146e+000
      vertex -8.651781e+001  1.477006e+001  6.855802e+000
      vertex -8.760641e+001  1.494822e+001  6.426854e+000
    endloop
  endfacet
  facet normal  2.526115e-001  9.338484e-001 -2.532084e-001
    outer loop
      vertex -8.748660e+001  1.483489e+001  6.128418e+000
      vertex -8.760641e+001  1.494822e+001  6.426854e+000
      vertex -8.651781e+001  1.477006e+001  6.855802e+000
    endloop
  endfacet
  facet normal  2.390315e-001  9.423034e-001 -2.343679e-001
    outer loop
      vertex -8.651781e+001  1.477006e+001  6.855802e+000
      vertex -8.630959e+001  1.440714e+001  5.609009e+000
      vertex -8.748660e+001  1.483489e+001  6.128418e+000
    endloop
  endfacet
  facet normal  2.264322e-001  9.303475e-001 -2.884129e-001
    outer loop
      vertex -8.679194e+001  1.505234e+001  7.551146e+000
      vertex -8.553736e+001  1.478029e+001  7.658559e+000
      vertex -8.651781e+001  1.477006e+001  6.855802e+000
    endloop
  endfacet
  facet normal  1.794163e-001  9.317562e-001 -3.156583e-001
    outer loop
      vertex -8.461569e+001  1.504174e+001  8.954174e+000
      vertex -8.429379e+001  1.452538e+001  7.612939e+000
      vertex -8.553736e+001  1.478029e+001  7.658559e+000
    endloop
  endfacet
  facet normal  1.526388e-001  9.340233e-001 -3.229579e-001
    outer loop
      vertex -8.461569e+001  1.504174e+001  8.954174e+000
      vertex -8.321241e+001  1.461659e+001  8.387821e+000
      vertex -8.429379e+001  1.452538e+001  7.612939e+000
    endloop
  endfacet
  facet normal  1.498756e-001  9.570968e-001 -2.479984e-001
    outer loop
      vertex -8.429379e+001  1.452538e+001  7.612939e+000
      vertex -8.303082e+001  1.422469e+001  7.215764e+000
      vertex -8.406638e+001  1.397052e+001  5.609009e+000
    endloop
  endfacet
  facet normal  9.647857e-002  9.246960e-001 -3.682790e-001
    outer loop
      vertex -8.199127e+001  1.455372e+001  8.587128e+000
      vertex -8.315913e+001  1.545415e+001  1.054204e+001
      vertex -8.227565e+001  1.548070e+001  1.084015e+001
    endloop
  endfacet
  facet normal  9.258799e-002  9.663689e-001 -2.399134e-001
    outer loop
      vertex -8.179625e+001  1.370751e+001  5.609009e+000
      vertex -8.303082e+001  1.422469e+001  7.215764e+000
      vertex -8.186227e+001  1.413315e+001  7.298033e+000
    endloop
  endfacet
  facet normal  2.817293e-001  9.298952e-001 -2.364815e-001
    outer loop
      vertex -8.851263e+001  1.501479e+001  5.609009e+000
      vertex -8.806733e+001  1.508751e+001  6.425442e+000
      vertex -8.760641e+001  1.494822e+001  6.426854e+000
    endloop
  endfacet
  facet normal  2.837093e-001  9.287072e-001 -2.387721e-001
    outer loop
      vertex -8.851263e+001  1.501479e+001  5.609009e+000
      vertex -8.760641e+001  1.494822e+001  6.426854e+000
      vertex -8.748660e+001  1.483489e+001  6.128418e+000
    endloop
  endfacet
  facet normal  2.611575e-001  9.468218e-001 -1.879501e-001
    outer loop
      vertex -8.851263e+001  1.501479e+001  5.609009e+000
      vertex -8.748660e+001  1.483489e+001  6.128418e+000
      vertex -8.630959e+001  1.440714e+001  5.609009e+000
    endloop
  endfacet
  facet normal  3.739194e-002  9.720654e-001 -2.317123e-001
    outer loop
      vertex -7.951263e+001  1.361966e+001  5.609009e+000
      vertex -8.179625e+001  1.370751e+001  5.609009e+000
      vertex -8.068699e+001  1.407602e+001  7.333965e+000
    endloop
  endfacet
  facet normal  5.449461e-002  9.687445e-001 -2.420010e-001
    outer loop
      vertex -8.068699e+001  1.407602e+001  7.333965e+000
      vertex -8.179625e+001  1.370751e+001  5.609009e+000
      vertex -8.186227e+001  1.413315e+001  7.298033e+000
    endloop
  endfacet
  facet normal  5.550450e-002  9.515942e-001 -3.023039e-001
    outer loop
      vertex -8.068699e+001  1.407602e+001  7.333965e+000
      vertex -8.186227e+001  1.413315e+001  7.298033e+000
      vertex -8.075253e+001  1.451189e+001  8.693977e+000
    endloop
  endfacet
  facet normal  5.835962e-002  9.507708e-001 -3.043503e-001
    outer loop
      vertex -8.075253e+001  1.451189e+001  8.693977e+000
      vertex -8.186227e+001  1.413315e+001  7.298033e+000
      vertex -8.199127e+001  1.455372e+001  8.587128e+000
    endloop
  endfacet
  facet normal  6.329915e-002  9.264121e-001 -3.711521e-001
    outer loop
      vertex -8.075253e+001  1.451189e+001  8.693977e+000
      vertex -8.199127e+001  1.455372e+001  8.587128e+000
      vertex -8.136812e+001  1.549984e+001  1.105495e+001
    endloop
  endfacet
  facet normal  6.857680e-002  9.256228e-001 -3.721821e-001
    outer loop
      vertex -8.136812e+001  1.549984e+001  1.105495e+001
      vertex -8.199127e+001  1.455372e+001  8.587128e+000
      vertex -8.227565e+001  1.548070e+001  1.084015e+001
    endloop
  endfacet
  facet normal  1.784924e-002  9.527643e-001 -3.031859e-001
    outer loop
      vertex -7.951263e+001  1.405645e+001  7.341605e+000
      vertex -8.068699e+001  1.407602e+001  7.333965e+000
      vertex -7.951263e+001  1.449677e+001  8.725321e+000
    endloop
  endfacet
  facet normal  1.930727e-002  9.523804e-001 -3.043004e-001
    outer loop
      vertex -7.951263e+001  1.449677e+001  8.725321e+000
      vertex -8.068699e+001  1.407602e+001  7.333965e+000
      vertex -8.075253e+001  1.451189e+001  8.693977e+000
    endloop
  endfacet
  facet normal  2.077364e-002  9.269663e-001 -3.745691e-001
    outer loop
      vertex -7.951263e+001  1.449677e+001  8.725321e+000
      vertex -8.075253e+001  1.451189e+001  8.693977e+000
      vertex -8.044443e+001  1.551138e+001  1.118455e+001
    endloop
  endfacet
  facet normal  2.296424e-001  9.228533e-001 -3.092024e-001
    outer loop
      vertex -8.630347e+001  1.527931e+001  8.578973e+000
      vertex -8.553736e+001  1.478029e+001  7.658559e+000
      vertex -8.695792e+001  1.522035e+001  7.916922e+000
    endloop
  endfacet
  facet normal  2.268579e-001  9.199855e-001 -3.196284e-001
    outer loop
      vertex -8.695792e+001  1.522035e+001  7.916922e+000
      vertex -8.553736e+001  1.478029e+001  7.658559e+000
      vertex -8.679194e+001  1.505234e+001  7.551146e+000
    endloop
  endfacet
  facet normal  2.664622e-001  9.160219e-001 -2.998358e-001
    outer loop
      vertex -8.695792e+001  1.522035e+001  7.916922e+000
      vertex -8.679194e+001  1.505234e+001  7.551146e+000
      vertex -8.754759e+001  1.515623e+001  7.196991e+000
    endloop
  endfacet
  facet normal  2.543141e-001  9.286026e-001 -2.702251e-001
    outer loop
      vertex -8.754759e+001  1.515623e+001  7.196991e+000
      vertex -8.679194e+001  1.505234e+001  7.551146e+000
      vertex -8.760641e+001  1.494822e+001  6.426854e+000
    endloop
  endfacet
  facet normal  2.792700e-001  9.214152e-001 -2.701897e-001
    outer loop
      vertex -8.754759e+001  1.515623e+001  7.196991e+000
      vertex -8.760641e+001  1.494822e+001  6.426854e+000
      vertex -8.806733e+001  1.508751e+001  6.425442e+000
    endloop
  endfacet
  facet normal  1.506743e-001  9.242827e-001 -3.507117e-001
    outer loop
      vertex -8.401088e+001  1.542041e+001  1.016322e+001
      vertex -8.321241e+001  1.461659e+001  8.387821e+000
      vertex -8.482349e+001  1.537978e+001  9.707019e+000
    endloop
  endfacet
  facet normal  1.257146e-001  9.175251e-001 -3.772846e-001
    outer loop
      vertex -8.482349e+001  1.537978e+001  9.707019e+000
      vertex -8.321241e+001  1.461659e+001  8.387821e+000
      vertex -8.461569e+001  1.504174e+001  8.954174e+000
    endloop
  endfacet
  facet normal  1.909473e-001  9.140915e-001 -3.577372e-001
    outer loop
      vertex -8.482349e+001  1.537978e+001  9.707019e+000
      vertex -8.461569e+001  1.504174e+001  8.954174e+000
      vertex -8.558991e+001  1.533261e+001  9.177402e+000
    endloop
  endfacet
  facet normal  2.002480e-001  9.229602e-001 -3.287025e-001
    outer loop
      vertex -8.558991e+001  1.533261e+001  9.177402e+000
      vertex -8.461569e+001  1.504174e+001  8.954174e+000
      vertex -8.553736e+001  1.478029e+001  7.658559e+000
    endloop
  endfacet
  facet normal  2.062967e-001  9.218460e-001 -3.280880e-001
    outer loop
      vertex -8.558991e+001  1.533261e+001  9.177402e+000
      vertex -8.553736e+001  1.478029e+001  7.658559e+000
      vertex -8.630347e+001  1.527931e+001  8.578973e+000
    endloop
  endfacet
  facet normal  9.778822e-002  9.489715e-001 -2.998175e-001
    outer loop
      vertex -8.199127e+001  1.455372e+001  8.587128e+000
      vertex -8.186227e+001  1.413315e+001  7.298033e+000
      vertex -8.321241e+001  1.461659e+001  8.387821e+000
    endloop
  endfacet
  facet normal  9.557381e-002  9.484061e-001 -3.023101e-001
    outer loop
      vertex -8.321241e+001  1.461659e+001  8.387821e+000
      vertex -8.186227e+001  1.413315e+001  7.298033e+000
      vertex -8.303082e+001  1.422469e+001  7.215764e+000
    endloop
  endfacet
  facet normal  1.321972e-001  9.460438e-001 -2.958459e-001
    outer loop
      vertex -8.321241e+001  1.461659e+001  8.387821e+000
      vertex -8.303082e+001  1.422469e+001  7.215764e+000
      vertex -8.429379e+001  1.452538e+001  7.612939e+000
    endloop
  endfacet
endsolid CATIA STL
